<svg width="363" height="267" viewBox="0 0 363 267" fill="none" xmlns="http://www.w3.org/2000/svg">
<g filter="url(#filter0_d)">
<rect x="32" y="28" width="299" height="203" rx="8" fill="white"/>
<path d="M70.918 76.3164C70.7852 78.1523 70.1055 79.5977 68.8789 80.6523C67.6602 81.707 66.0508 82.2344 64.0508 82.2344C61.8633 82.2344 60.1406 81.5 58.8828 80.0312C57.6328 78.5547 57.0078 76.5312 57.0078 73.9609V72.918C57.0078 71.2773 57.2969 69.832 57.875 68.582C58.4531 67.332 59.2773 66.375 60.3477 65.7109C61.4258 65.0391 62.6758 64.7031 64.0977 64.7031C66.0664 64.7031 67.6523 65.2305 68.8555 66.2852C70.0586 67.3398 70.7539 68.8203 70.9414 70.7266H67.4258C67.3398 69.625 67.0312 68.8281 66.5 68.3359C65.9766 67.8359 65.1758 67.5859 64.0977 67.5859C62.9258 67.5859 62.0469 68.0078 61.4609 68.8516C60.8828 69.6875 60.5859 70.9883 60.5703 72.7539V74.043C60.5703 75.8867 60.8477 77.2344 61.4023 78.0859C61.9648 78.9375 62.8477 79.3633 64.0508 79.3633C65.1367 79.3633 65.9453 79.1172 66.4766 78.625C67.0156 78.125 67.3242 77.3555 67.4023 76.3164H70.918ZM80.3516 82C80.1953 81.6953 80.082 81.3164 80.0117 80.8633C79.1914 81.7773 78.125 82.2344 76.8125 82.2344C75.5703 82.2344 74.5391 81.875 73.7188 81.1562C72.9062 80.4375 72.5 79.5312 72.5 78.4375C72.5 77.0938 72.9961 76.0625 73.9883 75.3438C74.9883 74.625 76.4297 74.2617 78.3125 74.2539H79.8711V73.5273C79.8711 72.9414 79.7188 72.4727 79.4141 72.1211C79.1172 71.7695 78.6445 71.5938 77.9961 71.5938C77.4258 71.5938 76.9766 71.7305 76.6484 72.0039C76.3281 72.2773 76.168 72.6523 76.168 73.1289H72.7812C72.7812 72.3945 73.0078 71.7148 73.4609 71.0898C73.9141 70.4648 74.5547 69.9766 75.3828 69.625C76.2109 69.2656 77.1406 69.0859 78.1719 69.0859C79.7344 69.0859 80.9727 69.4805 81.8867 70.2695C82.8086 71.0508 83.2695 72.1523 83.2695 73.5742V79.0703C83.2773 80.2734 83.4453 81.1836 83.7734 81.8008V82H80.3516ZM77.5508 79.6445C78.0508 79.6445 78.5117 79.5352 78.9336 79.3164C79.3555 79.0898 79.668 78.7891 79.8711 78.4141V76.2344H78.6055C76.9102 76.2344 76.0078 76.8203 75.8984 77.9922L75.8867 78.1914C75.8867 78.6133 76.0352 78.9609 76.332 79.2344C76.6289 79.5078 77.0352 79.6445 77.5508 79.6445ZM92.9961 72.4961C92.5352 72.4336 92.1289 72.4023 91.7773 72.4023C90.4961 72.4023 89.6562 72.8359 89.2578 73.7031V82H85.8711V69.3203H89.0703L89.1641 70.832C89.8438 69.668 90.7852 69.0859 91.9883 69.0859C92.3633 69.0859 92.7148 69.1367 93.043 69.2383L92.9961 72.4961ZM93.875 75.5664C93.875 73.5898 94.3164 72.0156 95.1992 70.8438C96.0898 69.6719 97.3047 69.0859 98.8438 69.0859C100.078 69.0859 101.098 69.5469 101.902 70.4688V64H105.301V82H102.242L102.078 80.6523C101.234 81.707 100.148 82.2344 98.8203 82.2344C97.3281 82.2344 96.1289 81.6484 95.2227 80.4766C94.3242 79.2969 93.875 77.6602 93.875 75.5664ZM97.2617 75.8125C97.2617 77 97.4688 77.9102 97.8828 78.543C98.2969 79.1758 98.8984 79.4922 99.6875 79.4922C100.734 79.4922 101.473 79.0508 101.902 78.168V73.1641C101.48 72.2812 100.75 71.8398 99.7109 71.8398C98.0781 71.8398 97.2617 73.1641 97.2617 75.8125ZM117.207 70.7031C118.105 69.625 119.234 69.0859 120.594 69.0859C123.344 69.0859 124.738 70.6836 124.777 73.8789V82H121.391V73.9727C121.391 73.2461 121.234 72.7109 120.922 72.3672C120.609 72.0156 120.09 71.8398 119.363 71.8398C118.371 71.8398 117.652 72.2227 117.207 72.9883V82H113.82V64H117.207V70.7031ZM133.168 82.2344C131.309 82.2344 129.793 81.6641 128.621 80.5234C127.457 79.3828 126.875 77.8633 126.875 75.9648V75.6367C126.875 74.3633 127.121 73.2266 127.613 72.2266C128.105 71.2188 128.801 70.4453 129.699 69.9062C130.605 69.3594 131.637 69.0859 132.793 69.0859C134.527 69.0859 135.891 69.6328 136.883 70.7266C137.883 71.8203 138.383 73.3711 138.383 75.3789V76.7617H130.309C130.418 77.5898 130.746 78.2539 131.293 78.7539C131.848 79.2539 132.547 79.5039 133.391 79.5039C134.695 79.5039 135.715 79.0312 136.449 78.0859L138.113 79.9492C137.605 80.668 136.918 81.2305 136.051 81.6367C135.184 82.0352 134.223 82.2344 133.168 82.2344ZM132.781 71.8281C132.109 71.8281 131.562 72.0547 131.141 72.5078C130.727 72.9609 130.461 73.6094 130.344 74.4531H135.055V74.1836C135.039 73.4336 134.836 72.8555 134.445 72.4492C134.055 72.0352 133.5 71.8281 132.781 71.8281ZM147.664 82C147.508 81.6953 147.395 81.3164 147.324 80.8633C146.504 81.7773 145.438 82.2344 144.125 82.2344C142.883 82.2344 141.852 81.875 141.031 81.1562C140.219 80.4375 139.812 79.5312 139.812 78.4375C139.812 77.0938 140.309 76.0625 141.301 75.3438C142.301 74.625 143.742 74.2617 145.625 74.2539H147.184V73.5273C147.184 72.9414 147.031 72.4727 146.727 72.1211C146.43 71.7695 145.957 71.5938 145.309 71.5938C144.738 71.5938 144.289 71.7305 143.961 72.0039C143.641 72.2773 143.48 72.6523 143.48 73.1289H140.094C140.094 72.3945 140.32 71.7148 140.773 71.0898C141.227 70.4648 141.867 69.9766 142.695 69.625C143.523 69.2656 144.453 69.0859 145.484 69.0859C147.047 69.0859 148.285 69.4805 149.199 70.2695C150.121 71.0508 150.582 72.1523 150.582 73.5742V79.0703C150.59 80.2734 150.758 81.1836 151.086 81.8008V82H147.664ZM144.863 79.6445C145.363 79.6445 145.824 79.5352 146.246 79.3164C146.668 79.0898 146.98 78.7891 147.184 78.4141V76.2344H145.918C144.223 76.2344 143.32 76.8203 143.211 77.9922L143.199 78.1914C143.199 78.6133 143.348 78.9609 143.645 79.2344C143.941 79.5078 144.348 79.6445 144.863 79.6445ZM152.656 75.5664C152.656 73.5898 153.098 72.0156 153.98 70.8438C154.871 69.6719 156.086 69.0859 157.625 69.0859C158.859 69.0859 159.879 69.5469 160.684 70.4688V64H164.082V82H161.023L160.859 80.6523C160.016 81.707 158.93 82.2344 157.602 82.2344C156.109 82.2344 154.91 81.6484 154.004 80.4766C153.105 79.2969 152.656 77.6602 152.656 75.5664ZM156.043 75.8125C156.043 77 156.25 77.9102 156.664 78.543C157.078 79.1758 157.68 79.4922 158.469 79.4922C159.516 79.4922 160.254 79.0508 160.684 78.168V73.1641C160.262 72.2812 159.531 71.8398 158.492 71.8398C156.859 71.8398 156.043 73.1641 156.043 75.8125ZM170.281 82H166.883V69.3203H170.281V82ZM166.684 66.0391C166.684 65.5312 166.852 65.1133 167.188 64.7852C167.531 64.457 167.996 64.293 168.582 64.293C169.16 64.293 169.621 64.457 169.965 64.7852C170.309 65.1133 170.48 65.5312 170.48 66.0391C170.48 66.5547 170.305 66.9766 169.953 67.3047C169.609 67.6328 169.152 67.7969 168.582 67.7969C168.012 67.7969 167.551 67.6328 167.199 67.3047C166.855 66.9766 166.684 66.5547 166.684 66.0391ZM176.199 69.3203L176.305 70.7852C177.211 69.6523 178.426 69.0859 179.949 69.0859C181.293 69.0859 182.293 69.4805 182.949 70.2695C183.605 71.0586 183.941 72.2383 183.957 73.8086V82H180.57V73.8906C180.57 73.1719 180.414 72.6523 180.102 72.332C179.789 72.0039 179.27 71.8398 178.543 71.8398C177.59 71.8398 176.875 72.2461 176.398 73.0586V82H173.012V69.3203H176.199ZM186.043 75.5664C186.043 73.6211 186.504 72.0547 187.426 70.8672C188.355 69.6797 189.605 69.0859 191.176 69.0859C192.566 69.0859 193.648 69.5625 194.422 70.5156L194.562 69.3203H197.633V81.5781C197.633 82.6875 197.379 83.6523 196.871 84.4727C196.371 85.293 195.664 85.918 194.75 86.3477C193.836 86.7773 192.766 86.9922 191.539 86.9922C190.609 86.9922 189.703 86.8047 188.82 86.4297C187.938 86.0625 187.27 85.5859 186.816 85L188.316 82.9375C189.16 83.8828 190.184 84.3555 191.387 84.3555C192.285 84.3555 192.984 84.1133 193.484 83.6289C193.984 83.1523 194.234 82.4727 194.234 81.5898V80.9102C193.453 81.793 192.426 82.2344 191.152 82.2344C189.629 82.2344 188.395 81.6406 187.449 80.4531C186.512 79.2578 186.043 77.6758 186.043 75.707V75.5664ZM189.43 75.8125C189.43 76.9609 189.66 77.8633 190.121 78.5195C190.582 79.168 191.215 79.4922 192.02 79.4922C193.051 79.4922 193.789 79.1055 194.234 78.332V73C193.781 72.2266 193.051 71.8398 192.043 71.8398C191.23 71.8398 190.59 72.1719 190.121 72.8359C189.66 73.5 189.43 74.4922 189.43 75.8125Z" fill="#181818"/>
<path d="M287 69L292 74L287 79" stroke="#BD00FF" stroke-width="2.35294" stroke-linecap="round" stroke-linejoin="round"/>
<path d="M59.2578 110.625L62.9766 119.906L66.6953 110.625H68.6406V122H67.1406V117.57L67.2812 112.789L63.5469 122H62.3984L58.6719 112.812L58.8203 117.57V122H57.3203V110.625H59.2578ZM70.6797 117.695C70.6797 116.867 70.8411 116.122 71.1641 115.461C71.4922 114.799 71.9453 114.289 72.5234 113.93C73.1068 113.57 73.7708 113.391 74.5156 113.391C75.6667 113.391 76.5964 113.789 77.3047 114.586C78.0182 115.383 78.375 116.443 78.375 117.766V117.867C78.375 118.69 78.2161 119.43 77.8984 120.086C77.5859 120.737 77.1354 121.245 76.5469 121.609C75.9635 121.974 75.2917 122.156 74.5312 122.156C73.3854 122.156 72.4557 121.758 71.7422 120.961C71.0339 120.164 70.6797 119.109 70.6797 117.797V117.695ZM72.1328 117.867C72.1328 118.805 72.349 119.557 72.7812 120.125C73.2188 120.693 73.8021 120.977 74.5312 120.977C75.2656 120.977 75.849 120.69 76.2812 120.117C76.7135 119.539 76.9297 118.732 76.9297 117.695C76.9297 116.768 76.7083 116.018 76.2656 115.445C75.8281 114.867 75.2448 114.578 74.5156 114.578C73.8021 114.578 73.2266 114.862 72.7891 115.43C72.3516 115.997 72.1328 116.81 72.1328 117.867ZM84.2734 114.844C84.0547 114.807 83.8177 114.789 83.5625 114.789C82.6146 114.789 81.9714 115.193 81.6328 116V122H80.1875V113.547H81.5938L81.6172 114.523C82.0911 113.768 82.763 113.391 83.6328 113.391C83.9141 113.391 84.1276 113.427 84.2734 113.5V114.844ZM92.7656 117.867C92.7656 119.159 92.4688 120.198 91.875 120.984C91.2812 121.766 90.4844 122.156 89.4844 122.156C88.4167 122.156 87.5911 121.779 87.0078 121.023L86.9375 122H85.6094V110H87.0547V114.477C87.638 113.753 88.4427 113.391 89.4688 113.391C90.4948 113.391 91.2995 113.779 91.8828 114.555C92.4714 115.331 92.7656 116.393 92.7656 117.742V117.867ZM91.3203 117.703C91.3203 116.719 91.1302 115.958 90.75 115.422C90.3698 114.885 89.8229 114.617 89.1094 114.617C88.1562 114.617 87.4714 115.06 87.0547 115.945V119.602C87.4974 120.487 88.1875 120.93 89.125 120.93C89.8177 120.93 90.3568 120.661 90.7422 120.125C91.1276 119.589 91.3203 118.781 91.3203 117.703ZM96.1641 122H94.7188V113.547H96.1641V122ZM94.6016 111.305C94.6016 111.07 94.6719 110.872 94.8125 110.711C94.9583 110.549 95.1719 110.469 95.4531 110.469C95.7344 110.469 95.9479 110.549 96.0938 110.711C96.2396 110.872 96.3125 111.07 96.3125 111.305C96.3125 111.539 96.2396 111.734 96.0938 111.891C95.9479 112.047 95.7344 112.125 95.4531 112.125C95.1719 112.125 94.9583 112.047 94.8125 111.891C94.6719 111.734 94.6016 111.539 94.6016 111.305ZM107.672 122C107.589 121.833 107.521 121.536 107.469 121.109C106.797 121.807 105.995 122.156 105.062 122.156C104.229 122.156 103.544 121.922 103.008 121.453C102.477 120.979 102.211 120.38 102.211 119.656C102.211 118.776 102.544 118.094 103.211 117.609C103.883 117.12 104.826 116.875 106.039 116.875H107.445V116.211C107.445 115.706 107.294 115.305 106.992 115.008C106.69 114.706 106.245 114.555 105.656 114.555C105.141 114.555 104.708 114.685 104.359 114.945C104.01 115.206 103.836 115.521 103.836 115.891H102.383C102.383 115.469 102.531 115.062 102.828 114.672C103.13 114.276 103.536 113.964 104.047 113.734C104.562 113.505 105.128 113.391 105.742 113.391C106.716 113.391 107.479 113.635 108.031 114.125C108.583 114.609 108.87 115.279 108.891 116.133V120.023C108.891 120.799 108.99 121.417 109.188 121.875V122H107.672ZM105.273 120.898C105.727 120.898 106.156 120.781 106.562 120.547C106.969 120.312 107.263 120.008 107.445 119.633V117.898H106.312C104.542 117.898 103.656 118.417 103.656 119.453C103.656 119.906 103.807 120.26 104.109 120.516C104.411 120.771 104.799 120.898 105.273 120.898ZM112.727 122H111.281V110H112.727V122ZM116.617 122H115.172V113.547H116.617V122ZM115.055 111.305C115.055 111.07 115.125 110.872 115.266 110.711C115.411 110.549 115.625 110.469 115.906 110.469C116.188 110.469 116.401 110.549 116.547 110.711C116.693 110.872 116.766 111.07 116.766 111.305C116.766 111.539 116.693 111.734 116.547 111.891C116.401 112.047 116.188 112.125 115.906 112.125C115.625 112.125 115.411 112.047 115.266 111.891C115.125 111.734 115.055 111.539 115.055 111.305ZM118.586 117.703C118.586 116.375 118.891 115.326 119.5 114.555C120.109 113.779 120.927 113.391 121.953 113.391C122.953 113.391 123.742 113.727 124.32 114.398L124.383 113.547H125.711V125.25H124.266V121.219C123.682 121.844 122.906 122.156 121.938 122.156C120.917 122.156 120.102 121.76 119.492 120.969C118.888 120.172 118.586 119.117 118.586 117.805V117.703ZM120.031 117.867C120.031 118.836 120.234 119.596 120.641 120.148C121.052 120.701 121.604 120.977 122.297 120.977C123.156 120.977 123.812 120.596 124.266 119.836V115.695C123.807 114.951 123.156 114.578 122.312 114.578C121.615 114.578 121.06 114.857 120.648 115.414C120.237 115.966 120.031 116.784 120.031 117.867ZM133.25 121.164C132.688 121.826 131.862 122.156 130.773 122.156C129.872 122.156 129.185 121.896 128.711 121.375C128.242 120.849 128.005 120.073 128 119.047V113.547H129.445V119.008C129.445 120.289 129.966 120.93 131.008 120.93C132.112 120.93 132.846 120.518 133.211 119.695V113.547H134.656V122H133.281L133.25 121.164ZM140.367 122.156C139.221 122.156 138.289 121.781 137.57 121.031C136.852 120.276 136.492 119.268 136.492 118.008V117.742C136.492 116.904 136.651 116.156 136.969 115.5C137.292 114.839 137.74 114.323 138.312 113.953C138.891 113.578 139.516 113.391 140.188 113.391C141.286 113.391 142.141 113.753 142.75 114.477C143.359 115.201 143.664 116.237 143.664 117.586V118.188H137.938C137.958 119.021 138.201 119.695 138.664 120.211C139.133 120.721 139.727 120.977 140.445 120.977C140.956 120.977 141.388 120.872 141.742 120.664C142.096 120.456 142.406 120.18 142.672 119.836L143.555 120.523C142.846 121.612 141.784 122.156 140.367 122.156ZM140.188 114.578C139.604 114.578 139.115 114.792 138.719 115.219C138.323 115.641 138.078 116.234 137.984 117H142.219V116.891C142.177 116.156 141.979 115.589 141.625 115.188C141.271 114.781 140.792 114.578 140.188 114.578ZM147.305 111.5V113.547H148.883V114.664H147.305V119.906C147.305 120.245 147.375 120.5 147.516 120.672C147.656 120.839 147.896 120.922 148.234 120.922C148.401 120.922 148.63 120.891 148.922 120.828V122C148.542 122.104 148.172 122.156 147.812 122.156C147.167 122.156 146.68 121.961 146.352 121.57C146.023 121.18 145.859 120.625 145.859 119.906V114.664H144.32V113.547H145.859V111.5H147.305ZM156.117 122H154.672V110H156.117V122ZM161.945 122.156C160.799 122.156 159.867 121.781 159.148 121.031C158.43 120.276 158.07 119.268 158.07 118.008V117.742C158.07 116.904 158.229 116.156 158.547 115.5C158.87 114.839 159.318 114.323 159.891 113.953C160.469 113.578 161.094 113.391 161.766 113.391C162.865 113.391 163.719 113.753 164.328 114.477C164.938 115.201 165.242 116.237 165.242 117.586V118.188H159.516C159.536 119.021 159.779 119.695 160.242 120.211C160.711 120.721 161.305 120.977 162.023 120.977C162.534 120.977 162.966 120.872 163.32 120.664C163.674 120.456 163.984 120.18 164.25 119.836L165.133 120.523C164.424 121.612 163.362 122.156 161.945 122.156ZM161.766 114.578C161.182 114.578 160.693 114.792 160.297 115.219C159.901 115.641 159.656 116.234 159.562 117H163.797V116.891C163.755 116.156 163.557 115.589 163.203 115.188C162.849 114.781 162.37 114.578 161.766 114.578ZM166.539 117.695C166.539 116.867 166.701 116.122 167.023 115.461C167.352 114.799 167.805 114.289 168.383 113.93C168.966 113.57 169.63 113.391 170.375 113.391C171.526 113.391 172.456 113.789 173.164 114.586C173.878 115.383 174.234 116.443 174.234 117.766V117.867C174.234 118.69 174.076 119.43 173.758 120.086C173.445 120.737 172.995 121.245 172.406 121.609C171.823 121.974 171.151 122.156 170.391 122.156C169.245 122.156 168.315 121.758 167.602 120.961C166.893 120.164 166.539 119.109 166.539 117.797V117.695ZM167.992 117.867C167.992 118.805 168.208 119.557 168.641 120.125C169.078 120.693 169.661 120.977 170.391 120.977C171.125 120.977 171.708 120.69 172.141 120.117C172.573 119.539 172.789 118.732 172.789 117.695C172.789 116.768 172.568 116.018 172.125 115.445C171.688 114.867 171.104 114.578 170.375 114.578C169.661 114.578 169.086 114.862 168.648 115.43C168.211 115.997 167.992 116.81 167.992 117.867ZM182.805 120.039L184.898 113.547H186.375L183.344 122H182.242L179.18 113.547H180.656L182.805 120.039ZM189.336 122H187.891V113.547H189.336V122ZM187.773 111.305C187.773 111.07 187.844 110.872 187.984 110.711C188.13 110.549 188.344 110.469 188.625 110.469C188.906 110.469 189.12 110.549 189.266 110.711C189.411 110.872 189.484 111.07 189.484 111.305C189.484 111.539 189.411 111.734 189.266 111.891C189.12 112.047 188.906 112.125 188.625 112.125C188.344 112.125 188.13 112.047 187.984 111.891C187.844 111.734 187.773 111.539 187.773 111.305ZM193.617 111.5V113.547H195.195V114.664H193.617V119.906C193.617 120.245 193.688 120.5 193.828 120.672C193.969 120.839 194.208 120.922 194.547 120.922C194.714 120.922 194.943 120.891 195.234 120.828V122C194.854 122.104 194.484 122.156 194.125 122.156C193.479 122.156 192.992 121.961 192.664 121.57C192.336 121.18 192.172 120.625 192.172 119.906V114.664H190.633V113.547H192.172V111.5H193.617ZM202.109 122C202.026 121.833 201.958 121.536 201.906 121.109C201.234 121.807 200.432 122.156 199.5 122.156C198.667 122.156 197.982 121.922 197.445 121.453C196.914 120.979 196.648 120.38 196.648 119.656C196.648 118.776 196.982 118.094 197.648 117.609C198.32 117.12 199.263 116.875 200.477 116.875H201.883V116.211C201.883 115.706 201.732 115.305 201.43 115.008C201.128 114.706 200.682 114.555 200.094 114.555C199.578 114.555 199.146 114.685 198.797 114.945C198.448 115.206 198.273 115.521 198.273 115.891H196.82C196.82 115.469 196.969 115.062 197.266 114.672C197.568 114.276 197.974 113.964 198.484 113.734C199 113.505 199.565 113.391 200.18 113.391C201.154 113.391 201.917 113.635 202.469 114.125C203.021 114.609 203.307 115.279 203.328 116.133V120.023C203.328 120.799 203.427 121.417 203.625 121.875V122H202.109ZM199.711 120.898C200.164 120.898 200.594 120.781 201 120.547C201.406 120.312 201.701 120.008 201.883 119.633V117.898H200.75C198.979 117.898 198.094 118.417 198.094 119.453C198.094 119.906 198.245 120.26 198.547 120.516C198.849 120.771 199.237 120.898 199.711 120.898ZM209.102 122.156C207.956 122.156 207.023 121.781 206.305 121.031C205.586 120.276 205.227 119.268 205.227 118.008V117.742C205.227 116.904 205.385 116.156 205.703 115.5C206.026 114.839 206.474 114.323 207.047 113.953C207.625 113.578 208.25 113.391 208.922 113.391C210.021 113.391 210.875 113.753 211.484 114.477C212.094 115.201 212.398 116.237 212.398 117.586V118.188H206.672C206.693 119.021 206.935 119.695 207.398 120.211C207.867 120.721 208.461 120.977 209.18 120.977C209.69 120.977 210.122 120.872 210.477 120.664C210.831 120.456 211.141 120.18 211.406 119.836L212.289 120.523C211.581 121.612 210.518 122.156 209.102 122.156ZM208.922 114.578C208.339 114.578 207.849 114.792 207.453 115.219C207.057 115.641 206.812 116.234 206.719 117H210.953V116.891C210.911 116.156 210.714 115.589 210.359 115.188C210.005 114.781 209.526 114.578 208.922 114.578ZM223.266 122C223.182 121.833 223.115 121.536 223.062 121.109C222.391 121.807 221.589 122.156 220.656 122.156C219.823 122.156 219.138 121.922 218.602 121.453C218.07 120.979 217.805 120.38 217.805 119.656C217.805 118.776 218.138 118.094 218.805 117.609C219.477 117.12 220.419 116.875 221.633 116.875H223.039V116.211C223.039 115.706 222.888 115.305 222.586 115.008C222.284 114.706 221.839 114.555 221.25 114.555C220.734 114.555 220.302 114.685 219.953 114.945C219.604 115.206 219.43 115.521 219.43 115.891H217.977C217.977 115.469 218.125 115.062 218.422 114.672C218.724 114.276 219.13 113.964 219.641 113.734C220.156 113.505 220.721 113.391 221.336 113.391C222.31 113.391 223.073 113.635 223.625 114.125C224.177 114.609 224.464 115.279 224.484 116.133V120.023C224.484 120.799 224.583 121.417 224.781 121.875V122H223.266ZM220.867 120.898C221.32 120.898 221.75 120.781 222.156 120.547C222.562 120.312 222.857 120.008 223.039 119.633V117.898H221.906C220.135 117.898 219.25 118.417 219.25 119.453C219.25 119.906 219.401 120.26 219.703 120.516C220.005 120.771 220.393 120.898 220.867 120.898ZM230.141 120.977C230.656 120.977 231.107 120.82 231.492 120.508C231.878 120.195 232.091 119.805 232.133 119.336H233.5C233.474 119.82 233.307 120.281 233 120.719C232.693 121.156 232.281 121.505 231.766 121.766C231.255 122.026 230.714 122.156 230.141 122.156C228.99 122.156 228.073 121.773 227.391 121.008C226.714 120.237 226.375 119.185 226.375 117.852V117.609C226.375 116.786 226.526 116.055 226.828 115.414C227.13 114.773 227.562 114.276 228.125 113.922C228.693 113.568 229.362 113.391 230.133 113.391C231.081 113.391 231.867 113.674 232.492 114.242C233.122 114.81 233.458 115.547 233.5 116.453H232.133C232.091 115.906 231.883 115.458 231.508 115.109C231.138 114.755 230.68 114.578 230.133 114.578C229.398 114.578 228.828 114.844 228.422 115.375C228.021 115.901 227.82 116.664 227.82 117.664V117.938C227.82 118.911 228.021 119.661 228.422 120.188C228.823 120.714 229.396 120.977 230.141 120.977ZM238.516 120.977C239.031 120.977 239.482 120.82 239.867 120.508C240.253 120.195 240.466 119.805 240.508 119.336H241.875C241.849 119.82 241.682 120.281 241.375 120.719C241.068 121.156 240.656 121.505 240.141 121.766C239.63 122.026 239.089 122.156 238.516 122.156C237.365 122.156 236.448 121.773 235.766 121.008C235.089 120.237 234.75 119.185 234.75 117.852V117.609C234.75 116.786 234.901 116.055 235.203 115.414C235.505 114.773 235.938 114.276 236.5 113.922C237.068 113.568 237.737 113.391 238.508 113.391C239.456 113.391 240.242 113.674 240.867 114.242C241.497 114.81 241.833 115.547 241.875 116.453H240.508C240.466 115.906 240.258 115.458 239.883 115.109C239.513 114.755 239.055 114.578 238.508 114.578C237.773 114.578 237.203 114.844 236.797 115.375C236.396 115.901 236.195 116.664 236.195 117.664V117.938C236.195 118.911 236.396 119.661 236.797 120.188C237.198 120.714 237.771 120.977 238.516 120.977ZM248.719 121.164C248.156 121.826 247.331 122.156 246.242 122.156C245.341 122.156 244.654 121.896 244.18 121.375C243.711 120.849 243.474 120.073 243.469 119.047V113.547H244.914V119.008C244.914 120.289 245.435 120.93 246.477 120.93C247.581 120.93 248.315 120.518 248.68 119.695V113.547H250.125V122H248.75L248.719 121.164ZM253.688 113.547L253.727 114.484C254.346 113.755 255.182 113.391 256.234 113.391C257.417 113.391 258.221 113.844 258.648 114.75C258.93 114.344 259.294 114.016 259.742 113.766C260.195 113.516 260.729 113.391 261.344 113.391C263.198 113.391 264.141 114.372 264.172 116.336V122H262.727V116.422C262.727 115.818 262.589 115.367 262.312 115.07C262.036 114.768 261.573 114.617 260.922 114.617C260.385 114.617 259.94 114.779 259.586 115.102C259.232 115.419 259.026 115.849 258.969 116.391V122H257.516V116.461C257.516 115.232 256.914 114.617 255.711 114.617C254.763 114.617 254.115 115.021 253.766 115.828V122H252.32V113.547H253.688ZM271.281 119.758C271.281 119.367 271.133 119.065 270.836 118.852C270.544 118.633 270.031 118.445 269.297 118.289C268.568 118.133 267.987 117.945 267.555 117.727C267.128 117.508 266.81 117.247 266.602 116.945C266.398 116.643 266.297 116.284 266.297 115.867C266.297 115.174 266.589 114.589 267.172 114.109C267.76 113.63 268.51 113.391 269.422 113.391C270.38 113.391 271.156 113.638 271.75 114.133C272.349 114.628 272.648 115.26 272.648 116.031H271.195C271.195 115.635 271.026 115.294 270.688 115.008C270.354 114.721 269.932 114.578 269.422 114.578C268.896 114.578 268.484 114.693 268.188 114.922C267.891 115.151 267.742 115.451 267.742 115.82C267.742 116.169 267.88 116.432 268.156 116.609C268.432 116.786 268.93 116.956 269.648 117.117C270.372 117.279 270.958 117.471 271.406 117.695C271.854 117.919 272.185 118.19 272.398 118.508C272.617 118.82 272.727 119.203 272.727 119.656C272.727 120.411 272.424 121.018 271.82 121.477C271.216 121.93 270.432 122.156 269.469 122.156C268.792 122.156 268.193 122.036 267.672 121.797C267.151 121.557 266.742 121.224 266.445 120.797C266.154 120.365 266.008 119.898 266.008 119.398H267.453C267.479 119.883 267.672 120.268 268.031 120.555C268.396 120.836 268.875 120.977 269.469 120.977C270.016 120.977 270.453 120.867 270.781 120.648C271.115 120.424 271.281 120.128 271.281 119.758ZM279.828 122C279.745 121.833 279.677 121.536 279.625 121.109C278.953 121.807 278.151 122.156 277.219 122.156C276.385 122.156 275.701 121.922 275.164 121.453C274.633 120.979 274.367 120.38 274.367 119.656C274.367 118.776 274.701 118.094 275.367 117.609C276.039 117.12 276.982 116.875 278.195 116.875H279.602V116.211C279.602 115.706 279.451 115.305 279.148 115.008C278.846 114.706 278.401 114.555 277.812 114.555C277.297 114.555 276.865 114.685 276.516 114.945C276.167 115.206 275.992 115.521 275.992 115.891H274.539C274.539 115.469 274.688 115.062 274.984 114.672C275.286 114.276 275.693 113.964 276.203 113.734C276.719 113.505 277.284 113.391 277.898 113.391C278.872 113.391 279.635 113.635 280.188 114.125C280.74 114.609 281.026 115.279 281.047 116.133V120.023C281.047 120.799 281.146 121.417 281.344 121.875V122H279.828ZM277.43 120.898C277.883 120.898 278.312 120.781 278.719 120.547C279.125 120.312 279.419 120.008 279.602 119.633V117.898H278.469C276.698 117.898 275.812 118.417 275.812 119.453C275.812 119.906 275.964 120.26 276.266 120.516C276.568 120.771 276.956 120.898 277.43 120.898ZM284.68 113.547L284.727 114.609C285.372 113.797 286.216 113.391 287.258 113.391C289.044 113.391 289.945 114.398 289.961 116.414V122H288.516V116.406C288.51 115.797 288.37 115.346 288.094 115.055C287.823 114.763 287.398 114.617 286.82 114.617C286.352 114.617 285.94 114.742 285.586 114.992C285.232 115.242 284.956 115.57 284.758 115.977V122H283.312V113.547H284.68ZM58.4531 132.547L58.4922 133.484C59.112 132.755 59.9479 132.391 61 132.391C62.1823 132.391 62.987 132.844 63.4141 133.75C63.6953 133.344 64.0599 133.016 64.5078 132.766C64.9609 132.516 65.4948 132.391 66.1094 132.391C67.9635 132.391 68.9062 133.372 68.9375 135.336V141H67.4922V135.422C67.4922 134.818 67.3542 134.367 67.0781 134.07C66.8021 133.768 66.3385 133.617 65.6875 133.617C65.151 133.617 64.7057 133.779 64.3516 134.102C63.9974 134.419 63.7917 134.849 63.7344 135.391V141H62.2812V135.461C62.2812 134.232 61.6797 133.617 60.4766 133.617C59.5286 133.617 58.8802 134.021 58.5312 134.828V141H57.0859V132.547H58.4531ZM76.3438 141C76.2604 140.833 76.1927 140.536 76.1406 140.109C75.4688 140.807 74.6667 141.156 73.7344 141.156C72.901 141.156 72.2161 140.922 71.6797 140.453C71.1484 139.979 70.8828 139.38 70.8828 138.656C70.8828 137.776 71.2161 137.094 71.8828 136.609C72.5547 136.12 73.4974 135.875 74.7109 135.875H76.1172V135.211C76.1172 134.706 75.9661 134.305 75.6641 134.008C75.362 133.706 74.9167 133.555 74.3281 133.555C73.8125 133.555 73.3802 133.685 73.0312 133.945C72.6823 134.206 72.5078 134.521 72.5078 134.891H71.0547C71.0547 134.469 71.2031 134.062 71.5 133.672C71.8021 133.276 72.2083 132.964 72.7188 132.734C73.2344 132.505 73.7995 132.391 74.4141 132.391C75.388 132.391 76.151 132.635 76.7031 133.125C77.2552 133.609 77.5417 134.279 77.5625 135.133V139.023C77.5625 139.799 77.6615 140.417 77.8594 140.875V141H76.3438ZM73.9453 139.898C74.3984 139.898 74.8281 139.781 75.2344 139.547C75.6406 139.312 75.9349 139.008 76.1172 138.633V136.898H74.9844C73.2135 136.898 72.3281 137.417 72.3281 138.453C72.3281 138.906 72.4792 139.26 72.7812 139.516C73.0833 139.771 73.4714 139.898 73.9453 139.898ZM81.7891 130.5V132.547H83.3672V133.664H81.7891V138.906C81.7891 139.245 81.8594 139.5 82 139.672C82.1406 139.839 82.3802 139.922 82.7188 139.922C82.8854 139.922 83.1146 139.891 83.4062 139.828V141C83.026 141.104 82.6562 141.156 82.2969 141.156C81.651 141.156 81.1641 140.961 80.8359 140.57C80.5078 140.18 80.3438 139.625 80.3438 138.906V133.664H78.8047V132.547H80.3438V130.5H81.7891ZM87.0234 130.5V132.547H88.6016V133.664H87.0234V138.906C87.0234 139.245 87.0938 139.5 87.2344 139.672C87.375 139.839 87.6146 139.922 87.9531 139.922C88.1198 139.922 88.349 139.891 88.6406 139.828V141C88.2604 141.104 87.8906 141.156 87.5312 141.156C86.8854 141.156 86.3984 140.961 86.0703 140.57C85.7422 140.18 85.5781 139.625 85.5781 138.906V133.664H84.0391V132.547H85.5781V130.5H87.0234ZM91.8672 141H90.4219V132.547H91.8672V141ZM90.3047 130.305C90.3047 130.07 90.375 129.872 90.5156 129.711C90.6615 129.549 90.875 129.469 91.1562 129.469C91.4375 129.469 91.651 129.549 91.7969 129.711C91.9427 129.872 92.0156 130.07 92.0156 130.305C92.0156 130.539 91.9427 130.734 91.7969 130.891C91.651 131.047 91.4375 131.125 91.1562 131.125C90.875 131.125 90.6615 131.047 90.5156 130.891C90.375 130.734 90.3047 130.539 90.3047 130.305ZM99.1094 138.758C99.1094 138.367 98.9609 138.065 98.6641 137.852C98.3724 137.633 97.8594 137.445 97.125 137.289C96.3958 137.133 95.8151 136.945 95.3828 136.727C94.9557 136.508 94.638 136.247 94.4297 135.945C94.2266 135.643 94.125 135.284 94.125 134.867C94.125 134.174 94.4167 133.589 95 133.109C95.5885 132.63 96.3385 132.391 97.25 132.391C98.2083 132.391 98.9844 132.638 99.5781 133.133C100.177 133.628 100.477 134.26 100.477 135.031H99.0234C99.0234 134.635 98.8542 134.294 98.5156 134.008C98.1823 133.721 97.7604 133.578 97.25 133.578C96.724 133.578 96.3125 133.693 96.0156 133.922C95.7188 134.151 95.5703 134.451 95.5703 134.82C95.5703 135.169 95.7083 135.432 95.9844 135.609C96.2604 135.786 96.7578 135.956 97.4766 136.117C98.2005 136.279 98.7865 136.471 99.2344 136.695C99.6823 136.919 100.013 137.19 100.227 137.508C100.445 137.82 100.555 138.203 100.555 138.656C100.555 139.411 100.253 140.018 99.6484 140.477C99.0443 140.93 98.2604 141.156 97.2969 141.156C96.6198 141.156 96.0208 141.036 95.5 140.797C94.9792 140.557 94.5703 140.224 94.2734 139.797C93.9818 139.365 93.8359 138.898 93.8359 138.398H95.2812C95.3073 138.883 95.5 139.268 95.8594 139.555C96.224 139.836 96.7031 139.977 97.2969 139.977C97.8438 139.977 98.2812 139.867 98.6094 139.648C98.9427 139.424 99.1094 139.128 99.1094 138.758ZM102.469 140.242C102.469 139.992 102.542 139.784 102.688 139.617C102.839 139.451 103.062 139.367 103.359 139.367C103.656 139.367 103.88 139.451 104.031 139.617C104.188 139.784 104.266 139.992 104.266 140.242C104.266 140.482 104.188 140.682 104.031 140.844C103.88 141.005 103.656 141.086 103.359 141.086C103.062 141.086 102.839 141.005 102.688 140.844C102.542 140.682 102.469 140.482 102.469 140.242ZM112.461 141H110.961V129.625H112.461V141ZM116.352 132.547L116.398 133.609C117.044 132.797 117.888 132.391 118.93 132.391C120.716 132.391 121.617 133.398 121.633 135.414V141H120.188V135.406C120.182 134.797 120.042 134.346 119.766 134.055C119.495 133.763 119.07 133.617 118.492 133.617C118.023 133.617 117.612 133.742 117.258 133.992C116.904 134.242 116.628 134.57 116.43 134.977V141H114.984V132.547H116.352ZM128.492 141V133.664H127.156V132.547H128.492V131.68C128.492 130.773 128.734 130.073 129.219 129.578C129.703 129.083 130.388 128.836 131.273 128.836C131.607 128.836 131.938 128.88 132.266 128.969L132.188 130.141C131.943 130.094 131.682 130.07 131.406 130.07C130.938 130.07 130.576 130.208 130.32 130.484C130.065 130.755 129.938 131.146 129.938 131.656V132.547H131.742V133.664H129.938V141H128.492ZM138.562 141C138.479 140.833 138.411 140.536 138.359 140.109C137.688 140.807 136.885 141.156 135.953 141.156C135.12 141.156 134.435 140.922 133.898 140.453C133.367 139.979 133.102 139.38 133.102 138.656C133.102 137.776 133.435 137.094 134.102 136.609C134.773 136.12 135.716 135.875 136.93 135.875H138.336V135.211C138.336 134.706 138.185 134.305 137.883 134.008C137.581 133.706 137.135 133.555 136.547 133.555C136.031 133.555 135.599 133.685 135.25 133.945C134.901 134.206 134.727 134.521 134.727 134.891H133.273C133.273 134.469 133.422 134.062 133.719 133.672C134.021 133.276 134.427 132.964 134.938 132.734C135.453 132.505 136.018 132.391 136.633 132.391C137.607 132.391 138.37 132.635 138.922 133.125C139.474 133.609 139.76 134.279 139.781 135.133V139.023C139.781 139.799 139.88 140.417 140.078 140.875V141H138.562ZM136.164 139.898C136.617 139.898 137.047 139.781 137.453 139.547C137.859 139.312 138.154 139.008 138.336 138.633V136.898H137.203C135.432 136.898 134.547 137.417 134.547 138.453C134.547 138.906 134.698 139.26 135 139.516C135.302 139.771 135.69 139.898 136.164 139.898ZM147.266 140.164C146.703 140.826 145.878 141.156 144.789 141.156C143.888 141.156 143.201 140.896 142.727 140.375C142.258 139.849 142.021 139.073 142.016 138.047V132.547H143.461V138.008C143.461 139.289 143.982 139.93 145.023 139.93C146.128 139.93 146.862 139.518 147.227 138.695V132.547H148.672V141H147.297L147.266 140.164ZM154.266 139.977C154.781 139.977 155.232 139.82 155.617 139.508C156.003 139.195 156.216 138.805 156.258 138.336H157.625C157.599 138.82 157.432 139.281 157.125 139.719C156.818 140.156 156.406 140.505 155.891 140.766C155.38 141.026 154.839 141.156 154.266 141.156C153.115 141.156 152.198 140.773 151.516 140.008C150.839 139.237 150.5 138.185 150.5 136.852V136.609C150.5 135.786 150.651 135.055 150.953 134.414C151.255 133.773 151.688 133.276 152.25 132.922C152.818 132.568 153.487 132.391 154.258 132.391C155.206 132.391 155.992 132.674 156.617 133.242C157.247 133.81 157.583 134.547 157.625 135.453H156.258C156.216 134.906 156.008 134.458 155.633 134.109C155.263 133.755 154.805 133.578 154.258 133.578C153.523 133.578 152.953 133.844 152.547 134.375C152.146 134.901 151.945 135.664 151.945 136.664V136.938C151.945 137.911 152.146 138.661 152.547 139.188C152.948 139.714 153.521 139.977 154.266 139.977ZM160.82 141H159.375V132.547H160.82V141ZM159.258 130.305C159.258 130.07 159.328 129.872 159.469 129.711C159.615 129.549 159.828 129.469 160.109 129.469C160.391 129.469 160.604 129.549 160.75 129.711C160.896 129.872 160.969 130.07 160.969 130.305C160.969 130.539 160.896 130.734 160.75 130.891C160.604 131.047 160.391 131.125 160.109 131.125C159.828 131.125 159.615 131.047 159.469 130.891C159.328 130.734 159.258 130.539 159.258 130.305ZM170.297 136.867C170.297 138.159 170 139.198 169.406 139.984C168.812 140.766 168.016 141.156 167.016 141.156C165.948 141.156 165.122 140.779 164.539 140.023L164.469 141H163.141V129H164.586V133.477C165.169 132.753 165.974 132.391 167 132.391C168.026 132.391 168.831 132.779 169.414 133.555C170.003 134.331 170.297 135.393 170.297 136.742V136.867ZM168.852 136.703C168.852 135.719 168.661 134.958 168.281 134.422C167.901 133.885 167.354 133.617 166.641 133.617C165.688 133.617 165.003 134.06 164.586 134.945V138.602C165.029 139.487 165.719 139.93 166.656 139.93C167.349 139.93 167.888 139.661 168.273 139.125C168.659 138.589 168.852 137.781 168.852 136.703ZM177.344 140.164C176.781 140.826 175.956 141.156 174.867 141.156C173.966 141.156 173.279 140.896 172.805 140.375C172.336 139.849 172.099 139.073 172.094 138.047V132.547H173.539V138.008C173.539 139.289 174.06 139.93 175.102 139.93C176.206 139.93 176.94 139.518 177.305 138.695V132.547H178.75V141H177.375L177.344 140.164ZM185.875 138.758C185.875 138.367 185.727 138.065 185.43 137.852C185.138 137.633 184.625 137.445 183.891 137.289C183.161 137.133 182.581 136.945 182.148 136.727C181.721 136.508 181.404 136.247 181.195 135.945C180.992 135.643 180.891 135.284 180.891 134.867C180.891 134.174 181.182 133.589 181.766 133.109C182.354 132.63 183.104 132.391 184.016 132.391C184.974 132.391 185.75 132.638 186.344 133.133C186.943 133.628 187.242 134.26 187.242 135.031H185.789C185.789 134.635 185.62 134.294 185.281 134.008C184.948 133.721 184.526 133.578 184.016 133.578C183.49 133.578 183.078 133.693 182.781 133.922C182.484 134.151 182.336 134.451 182.336 134.82C182.336 135.169 182.474 135.432 182.75 135.609C183.026 135.786 183.523 135.956 184.242 136.117C184.966 136.279 185.552 136.471 186 136.695C186.448 136.919 186.779 137.19 186.992 137.508C187.211 137.82 187.32 138.203 187.32 138.656C187.32 139.411 187.018 140.018 186.414 140.477C185.81 140.93 185.026 141.156 184.062 141.156C183.385 141.156 182.786 141.036 182.266 140.797C181.745 140.557 181.336 140.224 181.039 139.797C180.747 139.365 180.602 138.898 180.602 138.398H182.047C182.073 138.883 182.266 139.268 182.625 139.555C182.99 139.836 183.469 139.977 184.062 139.977C184.609 139.977 185.047 139.867 185.375 139.648C185.708 139.424 185.875 139.128 185.875 138.758ZM195.961 139.039L198.055 132.547H199.531L196.5 141H195.398L192.336 132.547H193.812L195.961 139.039ZM204.32 141.156C203.174 141.156 202.242 140.781 201.523 140.031C200.805 139.276 200.445 138.268 200.445 137.008V136.742C200.445 135.904 200.604 135.156 200.922 134.5C201.245 133.839 201.693 133.323 202.266 132.953C202.844 132.578 203.469 132.391 204.141 132.391C205.24 132.391 206.094 132.753 206.703 133.477C207.312 134.201 207.617 135.237 207.617 136.586V137.188H201.891C201.911 138.021 202.154 138.695 202.617 139.211C203.086 139.721 203.68 139.977 204.398 139.977C204.909 139.977 205.341 139.872 205.695 139.664C206.049 139.456 206.359 139.18 206.625 138.836L207.508 139.523C206.799 140.612 205.737 141.156 204.32 141.156ZM204.141 133.578C203.557 133.578 203.068 133.792 202.672 134.219C202.276 134.641 202.031 135.234 201.938 136H206.172V135.891C206.13 135.156 205.932 134.589 205.578 134.188C205.224 133.781 204.745 133.578 204.141 133.578ZM214.219 138.758C214.219 138.367 214.07 138.065 213.773 137.852C213.482 137.633 212.969 137.445 212.234 137.289C211.505 137.133 210.924 136.945 210.492 136.727C210.065 136.508 209.747 136.247 209.539 135.945C209.336 135.643 209.234 135.284 209.234 134.867C209.234 134.174 209.526 133.589 210.109 133.109C210.698 132.63 211.448 132.391 212.359 132.391C213.318 132.391 214.094 132.638 214.688 133.133C215.286 133.628 215.586 134.26 215.586 135.031H214.133C214.133 134.635 213.964 134.294 213.625 134.008C213.292 133.721 212.87 133.578 212.359 133.578C211.833 133.578 211.422 133.693 211.125 133.922C210.828 134.151 210.68 134.451 210.68 134.82C210.68 135.169 210.818 135.432 211.094 135.609C211.37 135.786 211.867 135.956 212.586 136.117C213.31 136.279 213.896 136.471 214.344 136.695C214.792 136.919 215.122 137.19 215.336 137.508C215.555 137.82 215.664 138.203 215.664 138.656C215.664 139.411 215.362 140.018 214.758 140.477C214.154 140.93 213.37 141.156 212.406 141.156C211.729 141.156 211.13 141.036 210.609 140.797C210.089 140.557 209.68 140.224 209.383 139.797C209.091 139.365 208.945 138.898 208.945 138.398H210.391C210.417 138.883 210.609 139.268 210.969 139.555C211.333 139.836 211.812 139.977 212.406 139.977C212.953 139.977 213.391 139.867 213.719 139.648C214.052 139.424 214.219 139.128 214.219 138.758ZM219.508 130.5V132.547H221.086V133.664H219.508V138.906C219.508 139.245 219.578 139.5 219.719 139.672C219.859 139.839 220.099 139.922 220.438 139.922C220.604 139.922 220.833 139.891 221.125 139.828V141C220.745 141.104 220.375 141.156 220.016 141.156C219.37 141.156 218.883 140.961 218.555 140.57C218.227 140.18 218.062 139.625 218.062 138.906V133.664H216.523V132.547H218.062V130.5H219.508ZM224.352 141H222.906V132.547H224.352V141ZM222.789 130.305C222.789 130.07 222.859 129.872 223 129.711C223.146 129.549 223.359 129.469 223.641 129.469C223.922 129.469 224.135 129.549 224.281 129.711C224.427 129.872 224.5 130.07 224.5 130.305C224.5 130.539 224.427 130.734 224.281 130.891C224.135 131.047 223.922 131.125 223.641 131.125C223.359 131.125 223.146 131.047 223 130.891C222.859 130.734 222.789 130.539 222.789 130.305ZM233.828 136.867C233.828 138.159 233.531 139.198 232.938 139.984C232.344 140.766 231.547 141.156 230.547 141.156C229.479 141.156 228.654 140.779 228.07 140.023L228 141H226.672V129H228.117V133.477C228.701 132.753 229.505 132.391 230.531 132.391C231.557 132.391 232.362 132.779 232.945 133.555C233.534 134.331 233.828 135.393 233.828 136.742V136.867ZM232.383 136.703C232.383 135.719 232.193 134.958 231.812 134.422C231.432 133.885 230.885 133.617 230.172 133.617C229.219 133.617 228.534 134.06 228.117 134.945V138.602C228.56 139.487 229.25 139.93 230.188 139.93C230.88 139.93 231.419 139.661 231.805 139.125C232.19 138.589 232.383 137.781 232.383 136.703ZM240.875 140.164C240.312 140.826 239.487 141.156 238.398 141.156C237.497 141.156 236.81 140.896 236.336 140.375C235.867 139.849 235.63 139.073 235.625 138.047V132.547H237.07V138.008C237.07 139.289 237.591 139.93 238.633 139.93C239.737 139.93 240.471 139.518 240.836 138.695V132.547H242.281V141H240.906L240.875 140.164ZM246.055 141H244.609V129H246.055V141ZM253.594 140.164C253.031 140.826 252.206 141.156 251.117 141.156C250.216 141.156 249.529 140.896 249.055 140.375C248.586 139.849 248.349 139.073 248.344 138.047V132.547H249.789V138.008C249.789 139.289 250.31 139.93 251.352 139.93C252.456 139.93 253.19 139.518 253.555 138.695V132.547H255V141H253.625L253.594 140.164ZM258.562 132.547L258.602 133.484C259.221 132.755 260.057 132.391 261.109 132.391C262.292 132.391 263.096 132.844 263.523 133.75C263.805 133.344 264.169 133.016 264.617 132.766C265.07 132.516 265.604 132.391 266.219 132.391C268.073 132.391 269.016 133.372 269.047 135.336V141H267.602V135.422C267.602 134.818 267.464 134.367 267.188 134.07C266.911 133.768 266.448 133.617 265.797 133.617C265.26 133.617 264.815 133.779 264.461 134.102C264.107 134.419 263.901 134.849 263.844 135.391V141H262.391V135.461C262.391 134.232 261.789 133.617 260.586 133.617C259.638 133.617 258.99 134.021 258.641 134.828V141H257.195V132.547H258.562ZM60.4844 158.977C61 158.977 61.4505 158.82 61.8359 158.508C62.2214 158.195 62.4349 157.805 62.4766 157.336H63.8438C63.8177 157.82 63.651 158.281 63.3438 158.719C63.0365 159.156 62.625 159.505 62.1094 159.766C61.599 160.026 61.0573 160.156 60.4844 160.156C59.3333 160.156 58.4167 159.773 57.7344 159.008C57.0573 158.237 56.7188 157.185 56.7188 155.852V155.609C56.7188 154.786 56.8698 154.055 57.1719 153.414C57.474 152.773 57.9062 152.276 58.4688 151.922C59.0365 151.568 59.7057 151.391 60.4766 151.391C61.4245 151.391 62.2109 151.674 62.8359 152.242C63.4661 152.81 63.8021 153.547 63.8438 154.453H62.4766C62.4349 153.906 62.2266 153.458 61.8516 153.109C61.4818 152.755 61.0234 152.578 60.4766 152.578C59.7422 152.578 59.1719 152.844 58.7656 153.375C58.3646 153.901 58.1641 154.664 58.1641 155.664V155.938C58.1641 156.911 58.3646 157.661 58.7656 158.188C59.1667 158.714 59.7396 158.977 60.4844 158.977ZM65.0859 155.695C65.0859 154.867 65.2474 154.122 65.5703 153.461C65.8984 152.799 66.3516 152.289 66.9297 151.93C67.513 151.57 68.1771 151.391 68.9219 151.391C70.0729 151.391 71.0026 151.789 71.7109 152.586C72.4245 153.383 72.7812 154.443 72.7812 155.766V155.867C72.7812 156.69 72.6224 157.43 72.3047 158.086C71.9922 158.737 71.5417 159.245 70.9531 159.609C70.3698 159.974 69.6979 160.156 68.9375 160.156C67.7917 160.156 66.862 159.758 66.1484 158.961C65.4401 158.164 65.0859 157.109 65.0859 155.797V155.695ZM66.5391 155.867C66.5391 156.805 66.7552 157.557 67.1875 158.125C67.625 158.693 68.2083 158.977 68.9375 158.977C69.6719 158.977 70.2552 158.69 70.6875 158.117C71.1198 157.539 71.3359 156.732 71.3359 155.695C71.3359 154.768 71.1146 154.018 70.6719 153.445C70.2344 152.867 69.651 152.578 68.9219 152.578C68.2083 152.578 67.6328 152.862 67.1953 153.43C66.7578 153.997 66.5391 154.81 66.5391 155.867ZM75.9609 151.547L76.0078 152.609C76.6536 151.797 77.4974 151.391 78.5391 151.391C80.3255 151.391 81.2266 152.398 81.2422 154.414V160H79.7969V154.406C79.7917 153.797 79.651 153.346 79.375 153.055C79.1042 152.763 78.6797 152.617 78.1016 152.617C77.6328 152.617 77.2214 152.742 76.8672 152.992C76.513 153.242 76.237 153.57 76.0391 153.977V160H74.5938V151.547H75.9609ZM83.0781 155.703C83.0781 154.385 83.3828 153.339 83.9922 152.562C84.6016 151.781 85.4089 151.391 86.4141 151.391C87.4453 151.391 88.25 151.755 88.8281 152.484L88.8984 151.547H90.2188V159.797C90.2188 160.891 89.8932 161.753 89.2422 162.383C88.5964 163.013 87.7266 163.328 86.6328 163.328C86.0234 163.328 85.4271 163.198 84.8438 162.938C84.2604 162.677 83.8151 162.32 83.5078 161.867L84.2578 161C84.8776 161.766 85.6354 162.148 86.5312 162.148C87.2344 162.148 87.7812 161.951 88.1719 161.555C88.5677 161.159 88.7656 160.602 88.7656 159.883V159.156C88.1875 159.823 87.3984 160.156 86.3984 160.156C85.4089 160.156 84.6068 159.758 83.9922 158.961C83.3828 158.164 83.0781 157.078 83.0781 155.703ZM84.5312 155.867C84.5312 156.82 84.7266 157.57 85.1172 158.117C85.5078 158.659 86.0547 158.93 86.7578 158.93C87.6693 158.93 88.3385 158.516 88.7656 157.688V153.828C88.3229 153.021 87.6589 152.617 86.7734 152.617C86.0703 152.617 85.5208 152.891 85.125 153.438C84.7292 153.984 84.5312 154.794 84.5312 155.867ZM97.625 159.164C97.0625 159.826 96.237 160.156 95.1484 160.156C94.2474 160.156 93.5599 159.896 93.0859 159.375C92.6172 158.849 92.3802 158.073 92.375 157.047V151.547H93.8203V157.008C93.8203 158.289 94.3411 158.93 95.3828 158.93C96.487 158.93 97.2214 158.518 97.5859 157.695V151.547H99.0312V160H97.6562L97.625 159.164ZM104.742 160.156C103.596 160.156 102.664 159.781 101.945 159.031C101.227 158.276 100.867 157.268 100.867 156.008V155.742C100.867 154.904 101.026 154.156 101.344 153.5C101.667 152.839 102.115 152.323 102.688 151.953C103.266 151.578 103.891 151.391 104.562 151.391C105.661 151.391 106.516 151.753 107.125 152.477C107.734 153.201 108.039 154.237 108.039 155.586V156.188H102.312C102.333 157.021 102.576 157.695 103.039 158.211C103.508 158.721 104.102 158.977 104.82 158.977C105.331 158.977 105.763 158.872 106.117 158.664C106.471 158.456 106.781 158.18 107.047 157.836L107.93 158.523C107.221 159.612 106.159 160.156 104.742 160.156ZM104.562 152.578C103.979 152.578 103.49 152.792 103.094 153.219C102.698 153.641 102.453 154.234 102.359 155H106.594V154.891C106.552 154.156 106.354 153.589 106 153.188C105.646 152.781 105.167 152.578 104.562 152.578ZM109.75 159.242C109.75 158.992 109.823 158.784 109.969 158.617C110.12 158.451 110.344 158.367 110.641 158.367C110.938 158.367 111.161 158.451 111.312 158.617C111.469 158.784 111.547 158.992 111.547 159.242C111.547 159.482 111.469 159.682 111.312 159.844C111.161 160.005 110.938 160.086 110.641 160.086C110.344 160.086 110.12 160.005 109.969 159.844C109.823 159.682 109.75 159.482 109.75 159.242Z" fill="#181818"/>
<path d="M64 183.042C59.6113 183.042 56.0421 186.611 56.0421 191C56.0421 195.389 59.6113 198.958 64 198.958C68.3887 198.958 71.9579 195.389 71.9579 191C71.9579 186.611 68.3887 183.042 64 183.042ZM64 184.103C67.8153 184.103 70.8968 187.185 70.8968 191C70.8968 192.519 70.4045 193.918 69.576 195.056C68.8838 193.609 67.6481 192.471 66.1332 191.912C67.087 191.238 67.7137 190.129 67.7137 188.878C67.7137 186.833 66.0447 185.164 64 185.164C61.9553 185.164 60.2863 186.833 60.2863 188.878C60.2863 190.129 60.913 191.238 61.8668 191.912C60.3507 192.47 59.1164 193.608 58.4239 195.056C57.5955 193.918 57.1032 192.519 57.1032 191C57.1032 187.185 60.1847 184.103 64 184.103ZM64 186.225C65.4713 186.225 66.6526 187.407 66.6526 188.878C66.6526 190.349 65.4713 191.531 64 191.531C62.5287 191.531 61.3474 190.349 61.3474 188.878C61.3474 187.407 62.5287 186.225 64 186.225ZM64 192.592C66.2151 192.592 68.0873 193.991 68.8079 195.952C67.5667 197.157 65.8708 197.897 64 197.897C62.1292 197.897 60.4333 197.157 59.1921 195.952C59.9138 193.993 61.7869 192.592 64 192.592Z" fill="#616161"/>
<path d="M80.5645 186.469H81.6953V192.51C81.6953 193.326 81.4492 193.965 80.957 194.426C80.4688 194.887 79.8164 195.117 79 195.117C78.1523 195.117 77.4922 194.9 77.0195 194.467C76.5469 194.033 76.3105 193.426 76.3105 192.645H77.4355C77.4355 193.133 77.5684 193.514 77.834 193.787C78.1035 194.061 78.4922 194.197 79 194.197C79.4648 194.197 79.8398 194.051 80.125 193.758C80.4141 193.465 80.5605 193.055 80.5645 192.527V186.469ZM83.1543 191.771C83.1543 191.15 83.2754 190.592 83.5176 190.096C83.7637 189.6 84.1035 189.217 84.5371 188.947C84.9746 188.678 85.4727 188.543 86.0312 188.543C86.8945 188.543 87.5918 188.842 88.123 189.439C88.6582 190.037 88.9258 190.832 88.9258 191.824V191.9C88.9258 192.518 88.8066 193.072 88.5684 193.564C88.334 194.053 87.9961 194.434 87.5547 194.707C87.1172 194.98 86.6133 195.117 86.043 195.117C85.1836 195.117 84.4863 194.818 83.9512 194.221C83.4199 193.623 83.1543 192.832 83.1543 191.848V191.771ZM84.2441 191.9C84.2441 192.604 84.4062 193.168 84.7305 193.594C85.0586 194.02 85.4961 194.232 86.043 194.232C86.5938 194.232 87.0312 194.018 87.3555 193.588C87.6797 193.154 87.8418 192.549 87.8418 191.771C87.8418 191.076 87.6758 190.514 87.3438 190.084C87.0156 189.65 86.5781 189.434 86.0312 189.434C85.4961 189.434 85.0645 189.646 84.7363 190.072C84.4082 190.498 84.2441 191.107 84.2441 191.9ZM94.1992 195C94.1367 194.875 94.0859 194.652 94.0469 194.332C93.543 194.855 92.9414 195.117 92.2422 195.117C91.6172 195.117 91.1035 194.941 90.7012 194.59C90.3027 194.234 90.1035 193.785 90.1035 193.242C90.1035 192.582 90.3535 192.07 90.8535 191.707C91.3574 191.34 92.0645 191.156 92.9746 191.156H94.0293V190.658C94.0293 190.279 93.916 189.979 93.6895 189.756C93.4629 189.529 93.1289 189.416 92.6875 189.416C92.3008 189.416 91.9766 189.514 91.7148 189.709C91.4531 189.904 91.3223 190.141 91.3223 190.418H90.2324C90.2324 190.102 90.3438 189.797 90.5664 189.504C90.793 189.207 91.0977 188.973 91.4805 188.801C91.8672 188.629 92.291 188.543 92.752 188.543C93.4824 188.543 94.0547 188.727 94.4688 189.094C94.8828 189.457 95.0977 189.959 95.1133 190.6V193.518C95.1133 194.1 95.1875 194.562 95.3359 194.906V195H94.1992ZM92.4004 194.174C92.7402 194.174 93.0625 194.086 93.3672 193.91C93.6719 193.734 93.8926 193.506 94.0293 193.225V191.924H93.1797C91.8516 191.924 91.1875 192.312 91.1875 193.09C91.1875 193.43 91.3008 193.695 91.5273 193.887C91.7539 194.078 92.0449 194.174 92.4004 194.174ZM97.8379 188.66L97.873 189.457C98.3574 188.848 98.9902 188.543 99.7715 188.543C101.111 188.543 101.787 189.299 101.799 190.811V195H100.715V190.805C100.711 190.348 100.605 190.01 100.398 189.791C100.195 189.572 99.877 189.463 99.4434 189.463C99.0918 189.463 98.7832 189.557 98.5176 189.744C98.252 189.932 98.0449 190.178 97.8965 190.482V195H96.8125V188.66H97.8379ZM104.459 188.66L104.494 189.457C104.979 188.848 105.611 188.543 106.393 188.543C107.732 188.543 108.408 189.299 108.42 190.811V195H107.336V190.805C107.332 190.348 107.227 190.01 107.02 189.791C106.816 189.572 106.498 189.463 106.064 189.463C105.713 189.463 105.404 189.557 105.139 189.744C104.873 189.932 104.666 190.178 104.518 190.482V195H103.434V188.66H104.459ZM113.969 195C113.906 194.875 113.855 194.652 113.816 194.332C113.312 194.855 112.711 195.117 112.012 195.117C111.387 195.117 110.873 194.941 110.471 194.59C110.072 194.234 109.873 193.785 109.873 193.242C109.873 192.582 110.123 192.07 110.623 191.707C111.127 191.34 111.834 191.156 112.744 191.156H113.799V190.658C113.799 190.279 113.686 189.979 113.459 189.756C113.232 189.529 112.898 189.416 112.457 189.416C112.07 189.416 111.746 189.514 111.484 189.709C111.223 189.904 111.092 190.141 111.092 190.418H110.002C110.002 190.102 110.113 189.797 110.336 189.504C110.562 189.207 110.867 188.973 111.25 188.801C111.637 188.629 112.061 188.543 112.521 188.543C113.252 188.543 113.824 188.727 114.238 189.094C114.652 189.457 114.867 189.959 114.883 190.6V193.518C114.883 194.1 114.957 194.562 115.105 194.906V195H113.969ZM112.17 194.174C112.51 194.174 112.832 194.086 113.137 193.91C113.441 193.734 113.662 193.506 113.799 193.225V191.924H112.949C111.621 191.924 110.957 192.312 110.957 193.09C110.957 193.43 111.07 193.695 111.297 193.887C111.523 194.078 111.814 194.174 112.17 194.174ZM122.242 191.197C121.277 190.92 120.574 190.58 120.133 190.178C119.695 189.771 119.477 189.271 119.477 188.678C119.477 188.006 119.744 187.451 120.279 187.014C120.818 186.572 121.518 186.352 122.377 186.352C122.963 186.352 123.484 186.465 123.941 186.691C124.402 186.918 124.758 187.23 125.008 187.629C125.262 188.027 125.389 188.463 125.389 188.936H124.258C124.258 188.42 124.094 188.016 123.766 187.723C123.438 187.426 122.975 187.277 122.377 187.277C121.822 187.277 121.389 187.4 121.076 187.646C120.768 187.889 120.613 188.227 120.613 188.66C120.613 189.008 120.76 189.303 121.053 189.545C121.35 189.783 121.852 190.002 122.559 190.201C123.27 190.4 123.824 190.621 124.223 190.863C124.625 191.102 124.922 191.381 125.113 191.701C125.309 192.021 125.406 192.398 125.406 192.832C125.406 193.523 125.137 194.078 124.598 194.496C124.059 194.91 123.338 195.117 122.436 195.117C121.85 195.117 121.303 195.006 120.795 194.783C120.287 194.557 119.895 194.248 119.617 193.857C119.344 193.467 119.207 193.023 119.207 192.527H120.338C120.338 193.043 120.527 193.451 120.906 193.752C121.289 194.049 121.799 194.197 122.436 194.197C123.029 194.197 123.484 194.076 123.801 193.834C124.117 193.592 124.275 193.262 124.275 192.844C124.275 192.426 124.129 192.104 123.836 191.877C123.543 191.646 123.012 191.42 122.242 191.197ZM127.703 188.66L127.732 189.363C128.197 188.816 128.824 188.543 129.613 188.543C130.5 188.543 131.104 188.883 131.424 189.562C131.635 189.258 131.908 189.012 132.244 188.824C132.584 188.637 132.984 188.543 133.445 188.543C134.836 188.543 135.543 189.279 135.566 190.752V195H134.482V190.816C134.482 190.363 134.379 190.025 134.172 189.803C133.965 189.576 133.617 189.463 133.129 189.463C132.727 189.463 132.393 189.584 132.127 189.826C131.861 190.064 131.707 190.387 131.664 190.793V195H130.574V190.846C130.574 189.924 130.123 189.463 129.221 189.463C128.51 189.463 128.023 189.766 127.762 190.371V195H126.678V188.66H127.703ZM138.385 195H137.301V188.66H138.385V195ZM137.213 186.979C137.213 186.803 137.266 186.654 137.371 186.533C137.48 186.412 137.641 186.352 137.852 186.352C138.062 186.352 138.223 186.412 138.332 186.533C138.441 186.654 138.496 186.803 138.496 186.979C138.496 187.154 138.441 187.301 138.332 187.418C138.223 187.535 138.062 187.594 137.852 187.594C137.641 187.594 137.48 187.535 137.371 187.418C137.266 187.301 137.213 187.154 137.213 186.979ZM141.596 187.125V188.66H142.779V189.498H141.596V193.43C141.596 193.684 141.648 193.875 141.754 194.004C141.859 194.129 142.039 194.191 142.293 194.191C142.418 194.191 142.59 194.168 142.809 194.121V195C142.523 195.078 142.246 195.117 141.977 195.117C141.492 195.117 141.127 194.971 140.881 194.678C140.635 194.385 140.512 193.969 140.512 193.43V189.498H139.357V188.66H140.512V187.125H141.596ZM145.135 189.428C145.615 188.838 146.24 188.543 147.01 188.543C148.35 188.543 149.025 189.299 149.037 190.811V195H147.953V190.805C147.949 190.348 147.844 190.01 147.637 189.791C147.434 189.572 147.115 189.463 146.682 189.463C146.33 189.463 146.021 189.557 145.756 189.744C145.49 189.932 145.283 190.178 145.135 190.482V195H144.051V186H145.135V189.428Z" fill="#616161"/>
<path d="M268.285 189.207H269.1C269.611 189.199 270.014 189.064 270.307 188.803C270.6 188.541 270.746 188.188 270.746 187.742C270.746 186.742 270.248 186.242 269.252 186.242C268.783 186.242 268.408 186.377 268.127 186.646C267.85 186.912 267.711 187.266 267.711 187.707H266.627C266.627 187.031 266.873 186.471 267.365 186.025C267.861 185.576 268.49 185.352 269.252 185.352C270.057 185.352 270.688 185.564 271.145 185.99C271.602 186.416 271.83 187.008 271.83 187.766C271.83 188.137 271.709 188.496 271.467 188.844C271.229 189.191 270.902 189.451 270.488 189.623C270.957 189.771 271.318 190.018 271.572 190.361C271.83 190.705 271.959 191.125 271.959 191.621C271.959 192.387 271.709 192.994 271.209 193.443C270.709 193.893 270.059 194.117 269.258 194.117C268.457 194.117 267.805 193.9 267.301 193.467C266.801 193.033 266.551 192.461 266.551 191.75H267.641C267.641 192.199 267.787 192.559 268.08 192.828C268.373 193.098 268.766 193.232 269.258 193.232C269.781 193.232 270.182 193.096 270.459 192.822C270.736 192.549 270.875 192.156 270.875 191.645C270.875 191.148 270.723 190.768 270.418 190.502C270.113 190.236 269.674 190.1 269.1 190.092H268.285V189.207ZM273.523 193.432C273.523 193.244 273.578 193.088 273.688 192.963C273.801 192.838 273.969 192.775 274.191 192.775C274.414 192.775 274.582 192.838 274.695 192.963C274.812 193.088 274.871 193.244 274.871 193.432C274.871 193.611 274.812 193.762 274.695 193.883C274.582 194.004 274.414 194.064 274.191 194.064C273.969 194.064 273.801 194.004 273.688 193.883C273.578 193.762 273.523 193.611 273.523 193.432ZM273.529 188.258C273.529 188.07 273.584 187.914 273.693 187.789C273.807 187.664 273.975 187.602 274.197 187.602C274.42 187.602 274.588 187.664 274.701 187.789C274.818 187.914 274.877 188.07 274.877 188.258C274.877 188.438 274.818 188.588 274.701 188.709C274.588 188.83 274.42 188.891 274.197 188.891C273.975 188.891 273.807 188.83 273.693 188.709C273.584 188.588 273.529 188.438 273.529 188.258ZM279.916 194H278.826V186.775L276.641 187.578V186.594L279.746 185.428H279.916V194ZM288.441 190.361C288.441 191.631 288.225 192.574 287.791 193.191C287.357 193.809 286.68 194.117 285.758 194.117C284.848 194.117 284.174 193.816 283.736 193.215C283.299 192.609 283.072 191.707 283.057 190.508V189.061C283.057 187.807 283.273 186.875 283.707 186.266C284.141 185.656 284.82 185.352 285.746 185.352C286.664 185.352 287.34 185.646 287.773 186.236C288.207 186.822 288.43 187.729 288.441 188.955V190.361ZM287.357 188.879C287.357 187.961 287.229 187.293 286.971 186.875C286.713 186.453 286.305 186.242 285.746 186.242C285.191 186.242 284.787 186.451 284.533 186.869C284.279 187.287 284.148 187.93 284.141 188.797V190.531C284.141 191.453 284.273 192.135 284.539 192.576C284.809 193.014 285.215 193.232 285.758 193.232C286.293 193.232 286.689 193.025 286.947 192.611C287.209 192.197 287.346 191.545 287.357 190.654V188.879ZM295.297 190.9C295.297 191.865 295.076 192.643 294.635 193.232C294.193 193.822 293.596 194.117 292.842 194.117C292.072 194.117 291.467 193.873 291.025 193.385V196.438H289.941V187.66H290.932L290.984 188.363C291.426 187.816 292.039 187.543 292.824 187.543C293.586 187.543 294.188 187.83 294.629 188.404C295.074 188.979 295.297 189.777 295.297 190.801V190.9ZM294.213 190.777C294.213 190.062 294.061 189.498 293.756 189.084C293.451 188.67 293.033 188.463 292.502 188.463C291.846 188.463 291.354 188.754 291.025 189.336V192.365C291.35 192.943 291.846 193.232 292.514 193.232C293.033 193.232 293.445 193.027 293.75 192.617C294.059 192.203 294.213 191.59 294.213 190.777ZM297.699 187.66L297.729 188.363C298.193 187.816 298.82 187.543 299.609 187.543C300.496 187.543 301.1 187.883 301.42 188.562C301.631 188.258 301.904 188.012 302.24 187.824C302.58 187.637 302.98 187.543 303.441 187.543C304.832 187.543 305.539 188.279 305.562 189.752V194H304.479V189.816C304.479 189.363 304.375 189.025 304.168 188.803C303.961 188.576 303.613 188.463 303.125 188.463C302.723 188.463 302.389 188.584 302.123 188.826C301.857 189.064 301.703 189.387 301.66 189.793V194H300.57V189.846C300.57 188.924 300.119 188.463 299.217 188.463C298.506 188.463 298.02 188.766 297.758 189.371V194H296.674V187.66H297.699Z" fill="#616161"/>
</g>
<defs>
<filter id="filter0_d" x="0" y="0" width="363" height="267" filterUnits="userSpaceOnUse" color-interpolation-filters="sRGB">
<feFlood flood-opacity="0" result="BackgroundImageFix"/>
<feColorMatrix in="SourceAlpha" type="matrix" values="0 0 0 0 0 0 0 0 0 0 0 0 0 0 0 0 0 0 127 0" result="hardAlpha"/>
<feOffset dy="4"/>
<feGaussianBlur stdDeviation="16"/>
<feComposite in2="hardAlpha" operator="out"/>
<feColorMatrix type="matrix" values="0 0 0 0 0 0 0 0 0 0 0 0 0 0 0 0 0 0 0.12 0"/>
<feBlend mode="normal" in2="BackgroundImageFix" result="effect1_dropShadow"/>
<feBlend mode="normal" in="SourceGraphic" in2="effect1_dropShadow" result="shape"/>
</filter>
</defs>
</svg>
