<svg width="477" height="93" viewBox="0 0 477 93" fill="none" xmlns="http://www.w3.org/2000/svg">
<path d="M3.50781 15H1.16406V3.625H3.50781V15ZM7.61719 6.54688L7.6875 7.52344C8.29167 6.76823 9.10156 6.39062 10.1172 6.39062C11.013 6.39062 11.6797 6.65365 12.1172 7.17969C12.5547 7.70573 12.7786 8.49219 12.7891 9.53906V15H10.5312V9.59375C10.5312 9.11458 10.4271 8.76823 10.2188 8.55469C10.0104 8.33594 9.66406 8.22656 9.17969 8.22656C8.54427 8.22656 8.06771 8.4974 7.75 9.03906V15H5.49219V6.54688H7.61719ZM22.1172 10.8516C22.1172 12.1536 21.8203 13.1979 21.2266 13.9844C20.638 14.7656 19.8411 15.1562 18.8359 15.1562C17.9818 15.1562 17.2917 14.8594 16.7656 14.2656V18.25H14.5078V6.54688H16.6016L16.6797 7.375C17.2266 6.71875 17.9401 6.39062 18.8203 6.39062C19.862 6.39062 20.6719 6.77604 21.25 7.54688C21.8281 8.31771 22.1172 9.38021 22.1172 10.7344V10.8516ZM19.8594 10.6875C19.8594 9.90104 19.7188 9.29427 19.4375 8.86719C19.1615 8.4401 18.7578 8.22656 18.2266 8.22656C17.5182 8.22656 17.0312 8.4974 16.7656 9.03906V12.5C17.0417 13.0573 17.5339 13.3359 18.2422 13.3359C19.3203 13.3359 19.8594 12.4531 19.8594 10.6875ZM28.5859 14.1406C28.0286 14.8177 27.2578 15.1562 26.2734 15.1562C25.3672 15.1562 24.6745 14.8958 24.1953 14.375C23.7214 13.8542 23.4792 13.0911 23.4688 12.0859V6.54688H25.7266V12.0078C25.7266 12.888 26.1276 13.3281 26.9297 13.3281C27.6953 13.3281 28.2214 13.0625 28.5078 12.5312V6.54688H30.7734V15H28.6484L28.5859 14.1406ZM35.1797 4.46875V6.54688H36.625V8.20312H35.1797V12.4219C35.1797 12.7344 35.2396 12.9583 35.3594 13.0938C35.4792 13.2292 35.7083 13.2969 36.0469 13.2969C36.2969 13.2969 36.5182 13.2786 36.7109 13.2422V14.9531C36.2682 15.0885 35.8125 15.1562 35.3438 15.1562C33.7604 15.1562 32.9531 14.3568 32.9219 12.7578V8.20312H31.6875V6.54688H32.9219V4.46875H35.1797ZM42.4141 15V8.20312H41.1562V6.54688H42.4141V6.15625C42.4245 5.09375 42.75 4.27604 43.3906 3.70312C44.0365 3.125 44.9453 2.83594 46.1172 2.83594C46.8203 2.83594 47.6745 2.98958 48.6797 3.29688L48.3516 5.16406C47.8411 5.01302 47.4453 4.91667 47.1641 4.875C46.8828 4.82812 46.5807 4.80469 46.2578 4.80469C45.2057 4.80469 44.6797 5.27083 44.6797 6.20312V6.54688H46.3438V8.20312H44.6797V15H42.4141ZM49.7344 15H47.4688V6.54688H49.7344V15ZM55.4922 15.1562C54.2526 15.1562 53.2422 14.776 52.4609 14.0156C51.6849 13.2552 51.2969 12.2422 51.2969 10.9766V10.7578C51.2969 9.90885 51.4609 9.15104 51.7891 8.48438C52.1172 7.8125 52.5807 7.29688 53.1797 6.9375C53.7839 6.57292 54.4714 6.39062 55.2422 6.39062C56.3984 6.39062 57.3073 6.75521 57.9688 7.48438C58.6354 8.21354 58.9688 9.2474 58.9688 10.5859V11.5078H53.5859C53.6589 12.0599 53.8776 12.5026 54.2422 12.8359C54.612 13.1693 55.0781 13.3359 55.6406 13.3359C56.5104 13.3359 57.1901 13.0208 57.6797 12.3906L58.7891 13.6328C58.4505 14.112 57.9922 14.487 57.4141 14.7578C56.8359 15.0234 56.1953 15.1562 55.4922 15.1562ZM55.2344 8.21875C54.7865 8.21875 54.4219 8.36979 54.1406 8.67188C53.8646 8.97396 53.6875 9.40625 53.6094 9.96875H56.75V9.78906C56.7396 9.28906 56.6042 8.90365 56.3438 8.63281C56.0833 8.35677 55.7135 8.21875 55.2344 8.21875ZM62.6406 15H60.375V3H62.6406V15ZM64.1562 10.7109C64.1562 9.39323 64.4505 8.34375 65.0391 7.5625C65.6328 6.78125 66.4427 6.39062 67.4688 6.39062C68.2917 6.39062 68.9714 6.69792 69.5078 7.3125V3H71.7734V15H69.7344L69.625 14.1016C69.0625 14.8047 68.3385 15.1562 67.4531 15.1562C66.4583 15.1562 65.6589 14.7656 65.0547 13.9844C64.4557 13.1979 64.1562 12.1068 64.1562 10.7109ZM66.4141 10.875C66.4141 11.6667 66.5521 12.2734 66.8281 12.6953C67.1042 13.1172 67.5052 13.3281 68.0312 13.3281C68.7292 13.3281 69.2214 13.0339 69.5078 12.4453V9.10938C69.2266 8.52083 68.7396 8.22656 68.0469 8.22656C66.9583 8.22656 66.4141 9.10938 66.4141 10.875Z" fill="black"/>
<circle cx="91" cy="9.5" r="5.5" stroke="black"/>
<path d="M90.2583 11.1865C90.2583 10.7161 90.3149 10.3414 90.4281 10.0625C90.5413 9.7836 90.7478 9.50974 91.0474 9.24093C91.3504 8.96875 91.5519 8.74866 91.6518 8.58065C91.7517 8.40927 91.8016 8.2295 91.8016 8.04133C91.8016 7.47345 91.5419 7.18952 91.0225 7.18952C90.7761 7.18952 90.578 7.2668 90.4281 7.42137C90.2816 7.57258 90.205 7.78259 90.1984 8.05141H88.75C88.7567 7.40961 88.9614 6.90726 89.3643 6.54435C89.7705 6.18145 90.3233 6 91.0225 6C91.7284 6 92.2761 6.17305 92.6656 6.51915C93.0552 6.8619 93.25 7.34745 93.25 7.97581C93.25 8.26142 93.1867 8.53192 93.0602 8.7873C92.9337 9.03931 92.7123 9.31989 92.3959 9.62903L91.9914 10.0171C91.7383 10.2624 91.5935 10.5497 91.5569 10.879L91.5369 11.1865H90.2583ZM90.1135 12.7339C90.1135 12.5087 90.1884 12.3239 90.3382 12.1794C90.4914 12.0316 90.6862 11.9577 90.9226 11.9577C91.159 11.9577 91.3521 12.0316 91.5019 12.1794C91.6551 12.3239 91.7317 12.5087 91.7317 12.7339C91.7317 12.9556 91.6568 13.1388 91.5069 13.2833C91.3604 13.4278 91.1656 13.5 90.9226 13.5C90.6795 13.5 90.4831 13.4278 90.3332 13.2833C90.1867 13.1388 90.1135 12.9556 90.1135 12.7339Z" fill="black"/>
<path d="M8 28H469C472.866 28 476 31.134 476 35V63C476 66.866 472.866 70 469 70H8C4.13401 70 1 66.866 1 63V35C1 31.134 4.13401 28 8 28Z" stroke="#7B7B7B" stroke-width="2"/>
<path d="M7.54688 90H6.41602V86.0566H2.11523V90H0.990234V81.4688H2.11523V85.1367H6.41602V81.4688H7.54688V90ZM10.5527 90H9.46875V83.6602H10.5527V90ZM9.38086 81.9785C9.38086 81.8027 9.43359 81.6543 9.53906 81.5332C9.64844 81.4121 9.80859 81.3516 10.0195 81.3516C10.2305 81.3516 10.3906 81.4121 10.5 81.5332C10.6094 81.6543 10.6641 81.8027 10.6641 81.9785C10.6641 82.1543 10.6094 82.3008 10.5 82.418C10.3906 82.5352 10.2305 82.5938 10.0195 82.5938C9.80859 82.5938 9.64844 82.5352 9.53906 82.418C9.43359 82.3008 9.38086 82.1543 9.38086 81.9785ZM13.3184 83.6602L13.3535 84.457C13.8379 83.8477 14.4707 83.543 15.252 83.543C16.5918 83.543 17.2676 84.2988 17.2793 85.8105V90H16.1953V85.8047C16.1914 85.3477 16.0859 85.0098 15.8789 84.791C15.6758 84.5723 15.3574 84.4629 14.9238 84.4629C14.5723 84.4629 14.2637 84.5566 13.998 84.7441C13.7324 84.9316 13.5254 85.1777 13.377 85.4824V90H12.293V83.6602H13.3184ZM20.3848 82.125V83.6602H21.5684V84.498H20.3848V88.4297C20.3848 88.6836 20.4375 88.875 20.543 89.0039C20.6484 89.1289 20.8281 89.1914 21.082 89.1914C21.207 89.1914 21.3789 89.168 21.5977 89.1211V90C21.3125 90.0781 21.0352 90.1172 20.7656 90.1172C20.2812 90.1172 19.916 89.9707 19.6699 89.6777C19.4238 89.3848 19.3008 88.9688 19.3008 88.4297V84.498H18.1465V83.6602H19.3008V82.125H20.3848ZM27.2871 82.125V83.6602H28.4707V84.498H27.2871V88.4297C27.2871 88.6836 27.3398 88.875 27.4453 89.0039C27.5508 89.1289 27.7305 89.1914 27.9844 89.1914C28.1094 89.1914 28.2812 89.168 28.5 89.1211V90C28.2148 90.0781 27.9375 90.1172 27.668 90.1172C27.1836 90.1172 26.8184 89.9707 26.5723 89.6777C26.3262 89.3848 26.2031 88.9688 26.2031 88.4297V84.498H25.0488V83.6602H26.2031V82.125H27.2871ZM32.373 90.1172C31.5137 90.1172 30.8145 89.8359 30.2754 89.2734C29.7363 88.707 29.4668 87.9512 29.4668 87.0059V86.8066C29.4668 86.1777 29.5859 85.6172 29.8242 85.125C30.0664 84.6289 30.4023 84.2422 30.832 83.9648C31.2656 83.6836 31.7344 83.543 32.2383 83.543C33.0625 83.543 33.7031 83.8145 34.1602 84.3574C34.6172 84.9004 34.8457 85.6777 34.8457 86.6895V87.1406H30.5508C30.5664 87.7656 30.748 88.2715 31.0957 88.6582C31.4473 89.041 31.8926 89.2324 32.4316 89.2324C32.8145 89.2324 33.1387 89.1543 33.4043 88.998C33.6699 88.8418 33.9023 88.6348 34.1016 88.377L34.7637 88.8926C34.2324 89.709 33.4355 90.1172 32.373 90.1172ZM32.2383 84.4336C31.8008 84.4336 31.4336 84.5938 31.1367 84.9141C30.8398 85.2305 30.6562 85.6758 30.5859 86.25H33.7617V86.168C33.7305 85.6172 33.582 85.1914 33.3164 84.8906C33.0508 84.5859 32.6914 84.4336 32.2383 84.4336ZM38.2324 85.9746L39.6387 83.6602H40.9043L38.8301 86.7949L40.9688 90H39.7148L38.25 87.627L36.7852 90H35.5254L37.6641 86.7949L35.5898 83.6602H36.8438L38.2324 85.9746ZM43.5293 82.125V83.6602H44.7129V84.498H43.5293V88.4297C43.5293 88.6836 43.582 88.875 43.6875 89.0039C43.793 89.1289 43.9727 89.1914 44.2266 89.1914C44.3516 89.1914 44.5234 89.168 44.7422 89.1211V90C44.457 90.0781 44.1797 90.1172 43.9102 90.1172C43.4258 90.1172 43.0605 89.9707 42.8145 89.6777C42.5684 89.3848 42.4453 88.9688 42.4453 88.4297V84.498H41.291V83.6602H42.4453V82.125H43.5293ZM45.9492 89.4316C45.9492 89.2441 46.0039 89.0879 46.1133 88.9629C46.2266 88.8379 46.3945 88.7754 46.6172 88.7754C46.8398 88.7754 47.0078 88.8379 47.1211 88.9629C47.2383 89.0879 47.2969 89.2441 47.2969 89.4316C47.2969 89.6113 47.2383 89.7617 47.1211 89.8828C47.0078 90.0039 46.8398 90.0645 46.6172 90.0645C46.3945 90.0645 46.2266 90.0039 46.1133 89.8828C46.0039 89.7617 45.9492 89.6113 45.9492 89.4316ZM45.9551 84.2578C45.9551 84.0703 46.0098 83.9141 46.1191 83.7891C46.2324 83.6641 46.4004 83.6016 46.623 83.6016C46.8457 83.6016 47.0137 83.6641 47.127 83.7891C47.2441 83.9141 47.3027 84.0703 47.3027 84.2578C47.3027 84.4375 47.2441 84.5879 47.127 84.709C47.0137 84.8301 46.8457 84.8906 46.623 84.8906C46.4004 84.8906 46.2324 84.8301 46.1191 84.709C46.0098 84.5879 45.9551 84.4375 45.9551 84.2578ZM53.168 89.0801H57.2109V90H52.0371V81.4688H53.168V89.0801ZM58.0371 86.7715C58.0371 86.1504 58.1582 85.5918 58.4004 85.0957C58.6465 84.5996 58.9863 84.2168 59.4199 83.9473C59.8574 83.6777 60.3555 83.543 60.9141 83.543C61.7773 83.543 62.4746 83.8418 63.0059 84.4395C63.541 85.0371 63.8086 85.832 63.8086 86.8242V86.9004C63.8086 87.5176 63.6895 88.0723 63.4512 88.5645C63.2168 89.0527 62.8789 89.4336 62.4375 89.707C62 89.9805 61.4961 90.1172 60.9258 90.1172C60.0664 90.1172 59.3691 89.8184 58.834 89.2207C58.3027 88.623 58.0371 87.832 58.0371 86.8477V86.7715ZM59.127 86.9004C59.127 87.6035 59.2891 88.168 59.6133 88.5938C59.9414 89.0195 60.3789 89.2324 60.9258 89.2324C61.4766 89.2324 61.9141 89.0176 62.2383 88.5879C62.5625 88.1543 62.7246 87.5488 62.7246 86.7715C62.7246 86.0762 62.5586 85.5137 62.2266 85.084C61.8984 84.6504 61.4609 84.4336 60.9141 84.4336C60.3789 84.4336 59.9473 84.6465 59.6191 85.0723C59.291 85.498 59.127 86.1074 59.127 86.9004ZM68.2324 84.6328C68.0684 84.6055 67.8906 84.5918 67.6992 84.5918C66.9883 84.5918 66.5059 84.8945 66.252 85.5V90H65.168V83.6602H66.2227L66.2402 84.3926C66.5957 83.8262 67.0996 83.543 67.752 83.543C67.9629 83.543 68.123 83.5703 68.2324 83.625V84.6328ZM71.748 90.1172C70.8887 90.1172 70.1895 89.8359 69.6504 89.2734C69.1113 88.707 68.8418 87.9512 68.8418 87.0059V86.8066C68.8418 86.1777 68.9609 85.6172 69.1992 85.125C69.4414 84.6289 69.7773 84.2422 70.207 83.9648C70.6406 83.6836 71.1094 83.543 71.6133 83.543C72.4375 83.543 73.0781 83.8145 73.5352 84.3574C73.9922 84.9004 74.2207 85.6777 74.2207 86.6895V87.1406H69.9258C69.9414 87.7656 70.123 88.2715 70.4707 88.6582C70.8223 89.041 71.2676 89.2324 71.8066 89.2324C72.1895 89.2324 72.5137 89.1543 72.7793 88.998C73.0449 88.8418 73.2773 88.6348 73.4766 88.377L74.1387 88.8926C73.6074 89.709 72.8105 90.1172 71.748 90.1172ZM71.6133 84.4336C71.1758 84.4336 70.8086 84.5938 70.5117 84.9141C70.2148 85.2305 70.0312 85.6758 69.9609 86.25H73.1367V86.168C73.1055 85.6172 72.957 85.1914 72.6914 84.8906C72.4258 84.5859 72.0664 84.4336 71.6133 84.4336ZM76.5 83.6602L76.5293 84.3633C76.9941 83.8164 77.6211 83.543 78.4102 83.543C79.2969 83.543 79.9004 83.8828 80.2207 84.5625C80.4316 84.2578 80.7051 84.0117 81.041 83.8242C81.3809 83.6367 81.7812 83.543 82.2422 83.543C83.6328 83.543 84.3398 84.2793 84.3633 85.752V90H83.2793V85.8164C83.2793 85.3633 83.1758 85.0254 82.9688 84.8027C82.7617 84.5762 82.4141 84.4629 81.9258 84.4629C81.5234 84.4629 81.1895 84.584 80.9238 84.8262C80.6582 85.0645 80.5039 85.3867 80.4609 85.793V90H79.3711V85.8457C79.3711 84.9238 78.9199 84.4629 78.0176 84.4629C77.3066 84.4629 76.8203 84.7656 76.5586 85.3711V90H75.4746V83.6602H76.5ZM90.1582 90H89.0742V83.6602H90.1582V90ZM88.9863 81.9785C88.9863 81.8027 89.0391 81.6543 89.1445 81.5332C89.2539 81.4121 89.4141 81.3516 89.625 81.3516C89.8359 81.3516 89.9961 81.4121 90.1055 81.5332C90.2148 81.6543 90.2695 81.8027 90.2695 81.9785C90.2695 82.1543 90.2148 82.3008 90.1055 82.418C89.9961 82.5352 89.8359 82.5938 89.625 82.5938C89.4141 82.5938 89.2539 82.5352 89.1445 82.418C89.0391 82.3008 88.9863 82.1543 88.9863 81.9785ZM97.2539 86.9004C97.2539 87.8652 97.0332 88.6426 96.5918 89.2324C96.1504 89.8223 95.5527 90.1172 94.7988 90.1172C94.0293 90.1172 93.4238 89.873 92.9824 89.3848V92.4375H91.8984V83.6602H92.8887L92.9414 84.3633C93.3828 83.8164 93.9961 83.543 94.7812 83.543C95.543 83.543 96.1445 83.8301 96.5859 84.4043C97.0312 84.9785 97.2539 85.7773 97.2539 86.8008V86.9004ZM96.1699 86.7773C96.1699 86.0625 96.0176 85.498 95.7129 85.084C95.4082 84.6699 94.9902 84.4629 94.459 84.4629C93.8027 84.4629 93.3105 84.7539 92.9824 85.3359V88.3652C93.3066 88.9434 93.8027 89.2324 94.4707 89.2324C94.9902 89.2324 95.4023 89.0273 95.707 88.6172C96.0156 88.2031 96.1699 87.5898 96.1699 86.7773ZM102.328 88.3184C102.328 88.0254 102.217 87.7988 101.994 87.6387C101.775 87.4746 101.391 87.334 100.84 87.2168C100.293 87.0996 99.8574 86.959 99.5332 86.7949C99.2129 86.6309 98.9746 86.4355 98.8184 86.209C98.666 85.9824 98.5898 85.7129 98.5898 85.4004C98.5898 84.8809 98.8086 84.4414 99.2461 84.082C99.6875 83.7227 100.25 83.543 100.934 83.543C101.652 83.543 102.234 83.7285 102.68 84.0996C103.129 84.4707 103.354 84.9453 103.354 85.5234H102.264C102.264 85.2266 102.137 84.9707 101.883 84.7559C101.633 84.541 101.316 84.4336 100.934 84.4336C100.539 84.4336 100.23 84.5195 100.008 84.6914C99.7852 84.8633 99.6738 85.0879 99.6738 85.3652C99.6738 85.627 99.7773 85.8242 99.9844 85.957C100.191 86.0898 100.564 86.2168 101.104 86.3379C101.646 86.459 102.086 86.6035 102.422 86.7715C102.758 86.9395 103.006 87.1426 103.166 87.3809C103.33 87.6152 103.412 87.9023 103.412 88.2422C103.412 88.8086 103.186 89.2637 102.732 89.6074C102.279 89.9473 101.691 90.1172 100.969 90.1172C100.461 90.1172 100.012 90.0273 99.6211 89.8477C99.2305 89.668 98.9238 89.418 98.7012 89.0977C98.4824 88.7734 98.373 88.4238 98.373 88.0488H99.457C99.4766 88.4121 99.6211 88.7012 99.8906 88.916C100.164 89.127 100.523 89.2324 100.969 89.2324C101.379 89.2324 101.707 89.1504 101.953 88.9863C102.203 88.8184 102.328 88.5957 102.328 88.3184ZM108.738 89.373C108.316 89.8691 107.697 90.1172 106.881 90.1172C106.205 90.1172 105.689 89.9219 105.334 89.5312C104.982 89.1367 104.805 88.5547 104.801 87.7852V83.6602H105.885V87.7559C105.885 88.7168 106.275 89.1973 107.057 89.1973C107.885 89.1973 108.436 88.8887 108.709 88.2715V83.6602H109.793V90H108.762L108.738 89.373ZM112.465 83.6602L112.494 84.3633C112.959 83.8164 113.586 83.543 114.375 83.543C115.262 83.543 115.865 83.8828 116.186 84.5625C116.396 84.2578 116.67 84.0117 117.006 83.8242C117.346 83.6367 117.746 83.543 118.207 83.543C119.598 83.543 120.305 84.2793 120.328 85.752V90H119.244V85.8164C119.244 85.3633 119.141 85.0254 118.934 84.8027C118.727 84.5762 118.379 84.4629 117.891 84.4629C117.488 84.4629 117.154 84.584 116.889 84.8262C116.623 85.0645 116.469 85.3867 116.426 85.793V90H115.336V85.8457C115.336 84.9238 114.885 84.4629 113.982 84.4629C113.271 84.4629 112.785 84.7656 112.523 85.3711V90H111.439V83.6602H112.465ZM124.682 86.7773C124.682 85.8047 124.912 85.0234 125.373 84.4336C125.834 83.8398 126.438 83.543 127.184 83.543C127.926 83.543 128.514 83.7969 128.947 84.3047V81H130.031V90H129.035L128.982 89.3203C128.549 89.8516 127.945 90.1172 127.172 90.1172C126.438 90.1172 125.838 89.8164 125.373 89.2148C124.912 88.6133 124.682 87.8281 124.682 86.8594V86.7773ZM125.766 86.9004C125.766 87.6191 125.914 88.1816 126.211 88.5879C126.508 88.9941 126.918 89.1973 127.441 89.1973C128.129 89.1973 128.631 88.8887 128.947 88.2715V85.3594C128.623 84.7617 128.125 84.4629 127.453 84.4629C126.922 84.4629 126.508 84.668 126.211 85.0781C125.914 85.4883 125.766 86.0957 125.766 86.9004ZM131.432 86.7715C131.432 86.1504 131.553 85.5918 131.795 85.0957C132.041 84.5996 132.381 84.2168 132.814 83.9473C133.252 83.6777 133.75 83.543 134.309 83.543C135.172 83.543 135.869 83.8418 136.4 84.4395C136.936 85.0371 137.203 85.832 137.203 86.8242V86.9004C137.203 87.5176 137.084 88.0723 136.846 88.5645C136.611 89.0527 136.273 89.4336 135.832 89.707C135.395 89.9805 134.891 90.1172 134.32 90.1172C133.461 90.1172 132.764 89.8184 132.229 89.2207C131.697 88.623 131.432 87.832 131.432 86.8477V86.7715ZM132.521 86.9004C132.521 87.6035 132.684 88.168 133.008 88.5938C133.336 89.0195 133.773 89.2324 134.32 89.2324C134.871 89.2324 135.309 89.0176 135.633 88.5879C135.957 88.1543 136.119 87.5488 136.119 86.7715C136.119 86.0762 135.953 85.5137 135.621 85.084C135.293 84.6504 134.855 84.4336 134.309 84.4336C133.773 84.4336 133.342 84.6465 133.014 85.0723C132.686 85.498 132.521 86.1074 132.521 86.9004ZM139.74 90H138.656V81H139.74V90ZM141.193 86.7715C141.193 86.1504 141.314 85.5918 141.557 85.0957C141.803 84.5996 142.143 84.2168 142.576 83.9473C143.014 83.6777 143.512 83.543 144.07 83.543C144.934 83.543 145.631 83.8418 146.162 84.4395C146.697 85.0371 146.965 85.832 146.965 86.8242V86.9004C146.965 87.5176 146.846 88.0723 146.607 88.5645C146.373 89.0527 146.035 89.4336 145.594 89.707C145.156 89.9805 144.652 90.1172 144.082 90.1172C143.223 90.1172 142.525 89.8184 141.99 89.2207C141.459 88.623 141.193 87.832 141.193 86.8477V86.7715ZM142.283 86.9004C142.283 87.6035 142.445 88.168 142.77 88.5938C143.098 89.0195 143.535 89.2324 144.082 89.2324C144.633 89.2324 145.07 89.0176 145.395 88.5879C145.719 88.1543 145.881 87.5488 145.881 86.7715C145.881 86.0762 145.715 85.5137 145.383 85.084C145.055 84.6504 144.617 84.4336 144.07 84.4336C143.535 84.4336 143.104 84.6465 142.775 85.0723C142.447 85.498 142.283 86.1074 142.283 86.9004ZM151.389 84.6328C151.225 84.6055 151.047 84.5918 150.855 84.5918C150.145 84.5918 149.662 84.8945 149.408 85.5V90H148.324V83.6602H149.379L149.396 84.3926C149.752 83.8262 150.256 83.543 150.908 83.543C151.119 83.543 151.279 83.5703 151.389 83.625V84.6328ZM159.059 88.3184C159.059 88.0254 158.947 87.7988 158.725 87.6387C158.506 87.4746 158.121 87.334 157.57 87.2168C157.023 87.0996 156.588 86.959 156.264 86.7949C155.943 86.6309 155.705 86.4355 155.549 86.209C155.396 85.9824 155.32 85.7129 155.32 85.4004C155.32 84.8809 155.539 84.4414 155.977 84.082C156.418 83.7227 156.98 83.543 157.664 83.543C158.383 83.543 158.965 83.7285 159.41 84.0996C159.859 84.4707 160.084 84.9453 160.084 85.5234H158.994C158.994 85.2266 158.867 84.9707 158.613 84.7559C158.363 84.541 158.047 84.4336 157.664 84.4336C157.27 84.4336 156.961 84.5195 156.738 84.6914C156.516 84.8633 156.404 85.0879 156.404 85.3652C156.404 85.627 156.508 85.8242 156.715 85.957C156.922 86.0898 157.295 86.2168 157.834 86.3379C158.377 86.459 158.816 86.6035 159.152 86.7715C159.488 86.9395 159.736 87.1426 159.896 87.3809C160.061 87.6152 160.143 87.9023 160.143 88.2422C160.143 88.8086 159.916 89.2637 159.463 89.6074C159.01 89.9473 158.422 90.1172 157.699 90.1172C157.191 90.1172 156.742 90.0273 156.352 89.8477C155.961 89.668 155.654 89.418 155.432 89.0977C155.213 88.7734 155.104 88.4238 155.104 88.0488H156.188C156.207 88.4121 156.352 88.7012 156.621 88.916C156.895 89.127 157.254 89.2324 157.699 89.2324C158.109 89.2324 158.438 89.1504 158.684 88.9863C158.934 88.8184 159.059 88.5957 159.059 88.3184ZM162.732 90H161.648V83.6602H162.732V90ZM161.561 81.9785C161.561 81.8027 161.613 81.6543 161.719 81.5332C161.828 81.4121 161.988 81.3516 162.199 81.3516C162.41 81.3516 162.57 81.4121 162.68 81.5332C162.789 81.6543 162.844 81.8027 162.844 81.9785C162.844 82.1543 162.789 82.3008 162.68 82.418C162.57 82.5352 162.41 82.5938 162.199 82.5938C161.988 82.5938 161.828 82.5352 161.719 82.418C161.613 82.3008 161.561 82.1543 161.561 81.9785ZM165.943 82.125V83.6602H167.127V84.498H165.943V88.4297C165.943 88.6836 165.996 88.875 166.102 89.0039C166.207 89.1289 166.387 89.1914 166.641 89.1914C166.766 89.1914 166.938 89.168 167.156 89.1211V90C166.871 90.0781 166.594 90.1172 166.324 90.1172C165.84 90.1172 165.475 89.9707 165.229 89.6777C164.982 89.3848 164.859 88.9688 164.859 88.4297V84.498H163.705V83.6602H164.859V82.125H165.943ZM175.289 90C175.227 89.875 175.176 89.6523 175.137 89.332C174.633 89.8555 174.031 90.1172 173.332 90.1172C172.707 90.1172 172.193 89.9414 171.791 89.5898C171.393 89.2344 171.193 88.7852 171.193 88.2422C171.193 87.582 171.443 87.0703 171.943 86.707C172.447 86.3398 173.154 86.1562 174.064 86.1562H175.119V85.6582C175.119 85.2793 175.006 84.9785 174.779 84.7559C174.553 84.5293 174.219 84.416 173.777 84.416C173.391 84.416 173.066 84.5137 172.805 84.709C172.543 84.9043 172.412 85.1406 172.412 85.418H171.322C171.322 85.1016 171.434 84.7969 171.656 84.5039C171.883 84.207 172.188 83.9727 172.57 83.8008C172.957 83.6289 173.381 83.543 173.842 83.543C174.572 83.543 175.145 83.7266 175.559 84.0938C175.973 84.457 176.188 84.959 176.203 85.5996V88.5176C176.203 89.0996 176.277 89.5625 176.426 89.9062V90H175.289ZM173.49 89.1738C173.83 89.1738 174.152 89.0859 174.457 88.9102C174.762 88.7344 174.982 88.5059 175.119 88.2246V86.9238H174.27C172.941 86.9238 172.277 87.3125 172.277 88.0898C172.277 88.4297 172.391 88.6953 172.617 88.8867C172.844 89.0781 173.135 89.1738 173.49 89.1738ZM178.922 83.6602L178.951 84.3633C179.416 83.8164 180.043 83.543 180.832 83.543C181.719 83.543 182.322 83.8828 182.643 84.5625C182.854 84.2578 183.127 84.0117 183.463 83.8242C183.803 83.6367 184.203 83.543 184.664 83.543C186.055 83.543 186.762 84.2793 186.785 85.752V90H185.701V85.8164C185.701 85.3633 185.598 85.0254 185.391 84.8027C185.184 84.5762 184.836 84.4629 184.348 84.4629C183.945 84.4629 183.611 84.584 183.346 84.8262C183.08 85.0645 182.926 85.3867 182.883 85.793V90H181.793V85.8457C181.793 84.9238 181.342 84.4629 180.439 84.4629C179.729 84.4629 179.242 84.7656 178.98 85.3711V90H177.896V83.6602H178.922ZM191.057 90.1172C190.197 90.1172 189.498 89.8359 188.959 89.2734C188.42 88.707 188.15 87.9512 188.15 87.0059V86.8066C188.15 86.1777 188.27 85.6172 188.508 85.125C188.75 84.6289 189.086 84.2422 189.516 83.9648C189.949 83.6836 190.418 83.543 190.922 83.543C191.746 83.543 192.387 83.8145 192.844 84.3574C193.301 84.9004 193.529 85.6777 193.529 86.6895V87.1406H189.234C189.25 87.7656 189.432 88.2715 189.779 88.6582C190.131 89.041 190.576 89.2324 191.115 89.2324C191.498 89.2324 191.822 89.1543 192.088 88.998C192.354 88.8418 192.586 88.6348 192.785 88.377L193.447 88.8926C192.916 89.709 192.119 90.1172 191.057 90.1172ZM190.922 84.4336C190.484 84.4336 190.117 84.5938 189.82 84.9141C189.523 85.2305 189.34 85.6758 189.27 86.25H192.445V86.168C192.414 85.6172 192.266 85.1914 192 84.8906C191.734 84.5859 191.375 84.4336 190.922 84.4336ZM196.26 82.125V83.6602H197.443V84.498H196.26V88.4297C196.26 88.6836 196.312 88.875 196.418 89.0039C196.523 89.1289 196.703 89.1914 196.957 89.1914C197.082 89.1914 197.254 89.168 197.473 89.1211V90C197.188 90.0781 196.91 90.1172 196.641 90.1172C196.156 90.1172 195.791 89.9707 195.545 89.6777C195.299 89.3848 195.176 88.9688 195.176 88.4297V84.498H194.021V83.6602H195.176V82.125H196.26Z" fill="black"/>
</svg>
