<svg width="233" height="233" viewBox="0 0 233 233" fill="none" xmlns="http://www.w3.org/2000/svg">
<g clip-path="url(#clip0)">
<rect width="233" height="233" fill="#1E1F28"/>
<path d="M269.989 256.3L212.904 214.651L151.45 192.225L89.9963 156.693L11.65 174.459L85.9188 222.515L36.8432 256.154L11.65 174.459L-57.3762 143.586L29.7075 111.258L-9.02872 66.6964L36.8432 23.1545L-20.0962 -18.3486M223.971 66.6964L302.026 75.9872L223.971 66.6964Z" stroke="#F2F2F2" stroke-opacity="0.04" stroke-width="0.29125"/>
<path d="M107.763 263.581L85.9188 222.515M-9.02869 66.6963L69.0263 76.0163L113.588 111.258L175.624 143.586L89.8507 156.547L29.5619 111.112L-9.02869 66.6963Z" stroke="#F2F2F2" stroke-opacity="0.04" stroke-width="0.29125"/>
<path d="M151.45 192.225L168.343 245.233L212.904 214.651L244.65 174.459L175.624 143.586L151.45 192.225ZM151.45 192.225L85.9188 222.515L89.9963 156.693L113.588 111.258L156.984 78.3463L223.971 66.6963L168.197 12.0869L107.763 30.5813L85.9188 -10.485L36.8432 23.1544L69.0263 76.0163L29.7076 111.258L11.6501 174.459L-20.0962 214.651L36.9888 256.3" stroke="#F2F2F2" stroke-opacity="0.04" stroke-width="0.29125"/>
<path d="M113.588 111.258H29.7075M151.45 -40.7749L168.488 12.3782L212.904 -18.3487L151.45 -40.7749ZM175.624 143.586L156.984 78.3463L69.0263 76.0163L107.763 30.5813L175.624 143.586ZM262.708 111.258L156.984 78.3463L262.708 111.258Z" stroke="#F2F2F2" stroke-opacity="0.04" stroke-width="0.29125"/>
<path d="M29.7075 111.257L-76.0162 78.3461M-64.6575 12.2324L36.8431 23.1542L107.763 30.5811L156.984 78.3461L168.197 12.0867L269.989 23.2999L223.971 66.6961L262.708 111.257L175.624 143.586L212.904 214.651L-64.6575 12.2324ZM85.9188 -10.4851L168.197 12.0867L85.9188 -10.4851ZM168.343 245.232L85.9188 222.515L168.343 245.232ZM11.65 -58.5414L36.9888 23.2999L11.65 -58.5414Z" stroke="#F2F2F2" stroke-opacity="0.04" stroke-width="0.29125"/>
<path d="M223.971 68.1525C224.775 68.1525 225.427 67.5005 225.427 66.6962C225.427 65.892 224.775 65.24 223.971 65.24C223.167 65.24 222.515 65.892 222.515 66.6962C222.515 67.5005 223.167 68.1525 223.971 68.1525Z" fill="#F0F0F0" fill-opacity="0.04"/>
<path d="M156.984 79.8025C157.788 79.8025 158.44 79.1505 158.44 78.3463C158.44 77.542 157.788 76.89 156.984 76.89C156.179 76.89 155.527 77.542 155.527 78.3463C155.527 79.1505 156.179 79.8025 156.984 79.8025Z" fill="#F0F0F0" fill-opacity="0.04"/>
<path d="M175.624 145.043C176.428 145.043 177.08 144.391 177.08 143.586C177.08 142.782 176.428 142.13 175.624 142.13C174.819 142.13 174.167 142.782 174.167 143.586C174.167 144.391 174.819 145.043 175.624 145.043Z" fill="#F0F0F0" fill-opacity="0.04"/>
<path d="M212.904 216.108C213.708 216.108 214.36 215.456 214.36 214.651C214.36 213.847 213.708 213.195 212.904 213.195C212.099 213.195 211.447 213.847 211.447 214.651C211.447 215.456 212.099 216.108 212.904 216.108Z" fill="#F0F0F0" fill-opacity="0.04"/>
<path d="M151.45 193.681C152.254 193.681 152.906 193.029 152.906 192.225C152.906 191.421 152.254 190.769 151.45 190.769C150.646 190.769 149.994 191.421 149.994 192.225C149.994 193.029 150.646 193.681 151.45 193.681Z" fill="#F0F0F0" fill-opacity="0.04"/>
<path d="M89.9962 158.149C90.8005 158.149 91.4525 157.497 91.4525 156.693C91.4525 155.888 90.8005 155.236 89.9962 155.236C89.192 155.236 88.54 155.888 88.54 156.693C88.54 157.497 89.192 158.149 89.9962 158.149Z" fill="#F0F0F0" fill-opacity="0.04"/>
<path d="M85.9187 223.971C86.723 223.971 87.375 223.319 87.375 222.515C87.375 221.711 86.723 221.059 85.9187 221.059C85.1144 221.059 84.4625 221.711 84.4625 222.515C84.4625 223.319 85.1144 223.971 85.9187 223.971Z" fill="#F0F0F0" fill-opacity="0.04"/>
<path d="M11.65 175.915C12.4542 175.915 13.1062 175.263 13.1062 174.459C13.1062 173.655 12.4542 173.003 11.65 173.003C10.8457 173.003 10.1937 173.655 10.1937 174.459C10.1937 175.263 10.8457 175.915 11.65 175.915Z" fill="#F0F0F0" fill-opacity="0.04"/>
<path d="M29.7075 112.714C30.5117 112.714 31.1637 112.062 31.1637 111.258C31.1637 110.453 30.5117 109.801 29.7075 109.801C28.9032 109.801 28.2512 110.453 28.2512 111.258C28.2512 112.062 28.9032 112.714 29.7075 112.714Z" fill="#F0F0F0" fill-opacity="0.04"/>
<path d="M36.9887 24.7562C37.793 24.7562 38.445 24.1043 38.445 23.3C38.445 22.4957 37.793 21.8438 36.9887 21.8438C36.1845 21.8438 35.5325 22.4957 35.5325 23.3C35.5325 24.1043 36.1845 24.7562 36.9887 24.7562Z" fill="#F0F0F0" fill-opacity="0.04"/>
<path d="M107.762 32.0375C108.567 32.0375 109.219 31.3855 109.219 30.5812C109.219 29.777 108.567 29.125 107.762 29.125C106.958 29.125 106.306 29.777 106.306 30.5812C106.306 31.3855 106.958 32.0375 107.762 32.0375Z" fill="#F0F0F0" fill-opacity="0.04"/>
<path d="M168.342 13.6887C169.147 13.6887 169.799 13.0368 169.799 12.2325C169.799 11.4282 169.147 10.7762 168.342 10.7762C167.538 10.7762 166.886 11.4282 166.886 12.2325C166.886 13.0368 167.538 13.6887 168.342 13.6887Z" fill="#F0F0F0" fill-opacity="0.04"/>
<path d="M69.0263 77.4723C69.8305 77.4723 70.4825 76.8203 70.4825 76.0161C70.4825 75.2118 69.8305 74.5598 69.0263 74.5598C68.222 74.5598 67.57 75.2118 67.57 76.0161C67.57 76.8203 68.222 77.4723 69.0263 77.4723Z" fill="#F0F0F0" fill-opacity="0.04"/>
<path d="M113.587 112.714C114.392 112.714 115.044 112.062 115.044 111.258C115.044 110.453 114.392 109.801 113.587 109.801C112.783 109.801 112.131 110.453 112.131 111.258C112.131 112.062 112.783 112.714 113.587 112.714Z" fill="#F0F0F0" fill-opacity="0.04"/>
</g>
<defs>
<clipPath id="clip0">
<rect width="233" height="233" fill="white"/>
</clipPath>
</defs>
</svg>
