<?xml version="1.0" encoding="UTF-8" standalone="no"?><!DOCTYPE svg PUBLIC "-//W3C//DTD SVG 1.1//EN" "http://www.w3.org/Graphics/SVG/1.1/DTD/svg11.dtd"><svg width="100%" height="100%" viewBox="0 0 834 834" version="1.1" xmlns="http://www.w3.org/2000/svg" xmlns:xlink="http://www.w3.org/1999/xlink" xml:space="preserve" xmlns:serif="http://www.serif.com/" style="fill-rule:evenodd;clip-rule:evenodd;stroke-linejoin:round;stroke-miterlimit:2;"><rect id="Artboard1" x="-0" y="0" width="833.333" height="833.333" style="fill:none;"/><clipPath id="_clip1"><rect x="-0" y="0" width="833.333" height="833.333"/></clipPath><g clip-path="url(#_clip1)"><g><path d="M704.831,564.759l0,77.464l7.672,6.967l38.553,-42.455l-46.225,-41.976Zm-21.1,-19.161l-432.218,-392.499l-53.373,-0l0,28.996l485.591,440.967l-0,-77.464Z" style="fill:#fc7373;"/><path d="M497.087,351.68l216.559,-198.575l119.687,-0l0,527.13l-128.648,-0l0,-380.804l-131.186,121.639l-76.412,-69.39Zm7.722,133.081l-75.021,69.561l-23.682,0l-278.098,-254.891l0,380.804l-128.008,-0l-0,-527.13l121.188,-0l297.109,270.822l9.713,-8.907l76.799,69.741Zm-63.47,-81.963l42.419,-38.897l76.487,69.458l-42.182,39.113l-76.724,-69.674Z" style="fill:#fc7373;fill-rule:nonzero;"/><path d="M198.14,224.068l0,98.667l57.347,-0l0,-46.59l-57.347,-52.077Zm57.347,27.751l0,-73.018l-57.347,-0l0,20.941l57.347,52.077Z" style="fill:#fc7373;"/></g></g></svg>